<svg xmlns="http://www.w3.org/2000/svg" width="42.839" height="42.918" viewBox="0 0 42.839 42.918">
  <g id="c-phone" transform="translate(1.961 1.958)">
    <rect id="Area" width="39" height="39" transform="translate(-0.041)" fill="#fcfcfc" opacity="0"/>
    <g id="Icon" transform="translate(3.541 0)">
      <path id="_11079669-935a-4150-bcf9-aa0fb5da006b" data-name="11079669-935a-4150-bcf9-aa0fb5da006b" d="M43.055,33.113v5.871A3.914,3.914,0,0,1,38.788,42.9,38.722,38.722,0,0,1,21.9,36.89,38.179,38.179,0,0,1,10.157,25.148,38.731,38.731,0,0,1,4.149,8.18,3.913,3.913,0,0,1,8.043,3.914h5.871A3.913,3.913,0,0,1,17.828,7.28a25.159,25.159,0,0,0,1.37,5.5,3.915,3.915,0,0,1-.88,4.13l-2.486,2.485A31.313,31.313,0,0,0,27.574,31.136l2.486-2.485a3.912,3.912,0,0,1,4.129-.881,25.131,25.131,0,0,0,5.5,1.37A3.915,3.915,0,0,1,43.055,33.113Z" transform="translate(-7.677 -3.914)" fill="none" stroke="#3d3d3d" stroke-linecap="round" stroke-linejoin="round" stroke-width="3.914"/>
    </g>
  </g>
</svg>
