<svg xmlns="http://www.w3.org/2000/svg" width="73.15" height="72.991" viewBox="0 0 73.15 72.991">
  <g id="Group_19" data-name="Group 19" transform="translate(496 -138.89)">
    <path id="Path_79" data-name="Path 79" d="M-444.567,138.89c.567.151,1.144.276,1.7.459a9.024,9.024,0,0,1,6.281,8.482q.066,13.864,0,27.729a9.063,9.063,0,0,1-9.351,8.956q-16.213.016-32.426-.008a2.017,2.017,0,0,0-1.41.5q-5.879,4.927-11.793,9.812a5.825,5.825,0,0,1-1.48.96A2.272,2.272,0,0,1-496,194.073v-47.2a1.6,1.6,0,0,0,.131-.313,9.006,9.006,0,0,1,6.113-7.19c.567-.21,1.17-.324,1.757-.483Zm-46.861,49.84c.292-.224.477-.356.651-.5,2.945-2.447,5.9-4.884,8.827-7.351a3.818,3.818,0,0,1,2.606-.932q16.569.026,33.139.01c3.186,0,5.065-1.871,5.066-5.043q0-13.222,0-26.445a4.626,4.626,0,0,0-5.023-5.014q-20.1,0-40.21,0c-3.179,0-5.056,1.876-5.056,5.053q0,19.709,0,39.418Z" fill="#fff"/>
    <path id="Path_80" data-name="Path 80" d="M-338.669,294.159c-.093.16-.19.318-.278.481a2.212,2.212,0,0,1-3.053.935,6.233,6.233,0,0,1-.937-.645q-4.827-3.847-9.639-7.713a2.09,2.09,0,0,0-1.421-.484q-15.072.022-30.144.008a9,9,0,0,1-9.134-7.184,19.459,19.459,0,0,1-.206-4.535,2.179,2.179,0,0,1,2.326-1.961,2.269,2.269,0,0,1,2.18,2.141c.04.687.012,1.378.015,2.067a4.608,4.608,0,0,0,4.915,4.909q15.5.008,31-.01a3.913,3.913,0,0,1,2.615.92c2.157,1.758,4.344,3.479,6.521,5.214.18.144.368.277.667.5v-.792q0-18.643,0-37.286c0-3.015-1.638-4.8-4.635-5.051a2.292,2.292,0,0,1-2.214-2.4,2.3,2.3,0,0,1,2.462-2.152,9.178,9.178,0,0,1,8.815,7.523,3.329,3.329,0,0,0,.145.456Z" transform="translate(-84.181 -83.973)" fill="#fff"/>
    <path id="Path_81" data-name="Path 81" d="M-403.29,220.092c-4.5,0-9,.009-13.5,0a2.272,2.272,0,0,1-2.267-3.095,2.217,2.217,0,0,1,1.952-1.449,6.691,6.691,0,0,1,.713-.013q13.175,0,26.349,0a5.012,5.012,0,0,1,.995.054,2.275,2.275,0,0,1,1.814,2.459,2.264,2.264,0,0,1-2.279,2.038c-2.785.022-5.57.009-8.355.009Z" transform="translate(-63.068 -62.951)" fill="#fff"/>
    <path id="Path_82" data-name="Path 82" d="M-407.791,271.185c-3.023,0-6.045.016-9.067-.007a2.263,2.263,0,0,1-2.176-3.153,2.235,2.235,0,0,1,2.206-1.4q3.32-.006,6.64,0c3.808,0,7.616-.012,11.424.006a2.268,2.268,0,0,1,2.226,3.122,2.254,2.254,0,0,1-2.256,1.435Z" transform="translate(-63.061 -104.918)" fill="#fff"/>
  </g>
</svg>
