<svg xmlns="http://www.w3.org/2000/svg" xmlns:xlink="http://www.w3.org/1999/xlink" viewBox="0 0 407 512"><defs><style>.cls-1{isolation:isolate;}.cls-2{fill:url(#linear-gradient);}.cls-3{fill:url(#linear-gradient-2);}.cls-4{fill:url(#linear-gradient-3);}.cls-5{fill:url(#linear-gradient-4);}.cls-6{fill:#221f1f;opacity:0.2;mix-blend-mode:multiply;}</style><linearGradient id="linear-gradient" x1="379.68" y1="118.51" x2="46.13" y2="411.56" gradientUnits="userSpaceOnUse"><stop offset="0" stop-color="#ec2a90"/><stop offset="0.06" stop-color="#d73597"/><stop offset="0.18" stop-color="#9f53a9"/><stop offset="0.34" stop-color="#4882c5"/><stop offset="0.47" stop-color="#00a8dc"/><stop offset="0.77" stop-color="#fdd301"/><stop offset="1" stop-color="#ec1e29"/></linearGradient><linearGradient id="linear-gradient-2" x1="355.97" y1="91.53" x2="22.43" y2="384.58" xlink:href="#linear-gradient"/><linearGradient id="linear-gradient-3" x1="344.37" y1="78.32" x2="10.82" y2="371.37" xlink:href="#linear-gradient"/><linearGradient id="linear-gradient-4" x1="346.34" y1="80.56" x2="12.79" y2="373.62" xlink:href="#linear-gradient"/></defs><g class="cls-1"><g id="Layer_1" data-name="Layer 1"><polygon class="cls-2" points="188.15 322.96 94.71 253.24 46.35 277.31 198.94 353.24 351.52 277.31 349.29 276.19 188.15 322.96"/><polygon class="cls-3" points="183.47 259.1 120.44 161.03 66.7 166.6 182.94 291.24 352.47 273.69 350.77 271.86 183.47 259.1"/><polygon class="cls-4" points="201.49 197.67 176.88 83.72 124.61 70.07 189.72 227.58 354.63 270.63 353.67 268.33 201.49 197.67"/><polygon class="cls-5" points="352.02 98.19 212.72 0 218.41 170.34 357.72 268.53 352.02 98.19"/><path class="cls-6" d="M212.71,0S249,36.26,281.56,131c33,96,76.16,137.56,76.16,137.56L218.41,170.34Z"/><path d="M61.68,396.66a7.82,7.82,0,0,1-1.91,2.19,4.32,4.32,0,0,1-2.58.72,6.25,6.25,0,0,1-3-.88l-3.64-2a30.53,30.53,0,0,0-4.64-2,18.48,18.48,0,0,0-5.95-.88q-5.76,0-8.58,2.46A8.36,8.36,0,0,0,28.56,403a6.12,6.12,0,0,0,1.69,4.43,14.81,14.81,0,0,0,4.46,3A48.32,48.32,0,0,0,41,412.77q3.56,1.07,7.25,2.36a64.8,64.8,0,0,1,7.25,3.07,24,24,0,0,1,6.31,4.49,20.89,20.89,0,0,1,4.46,6.64,23.65,23.65,0,0,1,1.7,9.43,30.85,30.85,0,0,1-2.12,11.47,26.9,26.9,0,0,1-6.16,9.31,28.66,28.66,0,0,1-10,6.25,37.13,37.13,0,0,1-13.44,2.28,43.53,43.53,0,0,1-8.4-.85,50.45,50.45,0,0,1-8.28-2.4,47.22,47.22,0,0,1-7.52-3.67A31.62,31.62,0,0,1,6,456.42l6.06-9.59A6.3,6.3,0,0,1,14,445.1a5,5,0,0,1,2.57-.69,6.86,6.86,0,0,1,3.67,1.15c1.24.77,2.63,1.62,4.19,2.55a33.58,33.58,0,0,0,5.37,2.54,20.09,20.09,0,0,0,7.16,1.16q5.58,0,8.67-2.46t3.1-7.8a7.36,7.36,0,0,0-1.7-5,13.18,13.18,0,0,0-4.46-3.22,41.17,41.17,0,0,0-6.28-2.24q-3.51-1-7.22-2.15A52.18,52.18,0,0,1,21.82,426a22.83,22.83,0,0,1-6.28-4.55,21.39,21.39,0,0,1-4.46-7A28,28,0,0,1,9.39,404a24.57,24.57,0,0,1,2-9.7,25,25,0,0,1,5.88-8.44A29,29,0,0,1,26.8,380a35.09,35.09,0,0,1,12.92-2.22,49,49,0,0,1,7.92.64A41.2,41.2,0,0,1,55,380.25a40.57,40.57,0,0,1,6.46,3,30.16,30.16,0,0,1,5.37,3.92Z"/><path d="M190.6,422.87a46.41,46.41,0,0,1-3.31,17.68,41.45,41.45,0,0,1-9.31,14,42.3,42.3,0,0,1-14.47,9.22,51.28,51.28,0,0,1-18.78,3.31H110.4V378.7h34.33A50.87,50.87,0,0,1,163.51,382,42.9,42.9,0,0,1,178,391.26a41.13,41.13,0,0,1,9.31,14A46.25,46.25,0,0,1,190.6,422.87Zm-21,0a38.58,38.58,0,0,0-1.7-11.83,25.17,25.17,0,0,0-4.89-9,21.1,21.1,0,0,0-7.79-5.64,26.39,26.39,0,0,0-10.5-2H131v56.84h13.71a26.39,26.39,0,0,0,10.5-2,21.1,21.1,0,0,0,7.79-5.64,25.17,25.17,0,0,0,4.89-8.95A38.79,38.79,0,0,0,169.61,422.87Z"/><path d="M292.64,444.22a4.15,4.15,0,0,1,1.45.28,3.88,3.88,0,0,1,1.4.94l8.13,8.55a33.81,33.81,0,0,1-13.38,10.53,46.92,46.92,0,0,1-19,3.55,45.42,45.42,0,0,1-18.05-3.43,39.14,39.14,0,0,1-13.53-9.47,41.59,41.59,0,0,1-8.52-14.31,52.93,52.93,0,0,1-3-18,49.87,49.87,0,0,1,3.21-18.17,42.41,42.41,0,0,1,9-14.29,40.6,40.6,0,0,1,14-9.34,46.75,46.75,0,0,1,17.89-3.34,48.28,48.28,0,0,1,9.38.88,46,46,0,0,1,8.21,2.43,37.66,37.66,0,0,1,12.75,8.46l-6.92,9.28a8.3,8.3,0,0,1-1.58,1.55,4.05,4.05,0,0,1-2.55.7,4.49,4.49,0,0,1-2.06-.49,22,22,0,0,1-2.06-1.18l-2.4-1.52a18.55,18.55,0,0,0-3.09-1.51,26,26,0,0,0-4.18-1.19,29,29,0,0,0-5.62-.48,22.68,22.68,0,0,0-9.31,1.88,20.2,20.2,0,0,0-7.28,5.49,25.26,25.26,0,0,0-4.73,8.86,39.27,39.27,0,0,0-1.67,12A36.48,36.48,0,0,0,251,434.94a26.53,26.53,0,0,0,5,8.89,21.34,21.34,0,0,0,7.43,5.49,22.33,22.33,0,0,0,9.1,1.88,43.91,43.91,0,0,0,5.1-.27A23.46,23.46,0,0,0,282,450a17.74,17.74,0,0,0,3.76-1.7,24,24,0,0,0,3.58-2.7,7.27,7.27,0,0,1,1.58-1A4.15,4.15,0,0,1,292.64,444.22Z"/><path d="M391.77,396.66a8,8,0,0,1-1.91,2.19,4.32,4.32,0,0,1-2.58.72,6.32,6.32,0,0,1-3-.88l-3.64-2a30.1,30.1,0,0,0-4.64-2,18.46,18.46,0,0,0-5.94-.88q-5.78,0-8.59,2.46a8.36,8.36,0,0,0-2.82,6.64,6.13,6.13,0,0,0,1.7,4.43,14.68,14.68,0,0,0,4.46,3,47.78,47.78,0,0,0,6.31,2.34c2.37.71,4.78,1.5,7.25,2.36a65.6,65.6,0,0,1,7.25,3.07,24.21,24.21,0,0,1,6.31,4.49,21.06,21.06,0,0,1,4.46,6.64,23.65,23.65,0,0,1,1.7,9.43A30.66,30.66,0,0,1,396,450.23a26.87,26.87,0,0,1-6.15,9.31,28.66,28.66,0,0,1-9.95,6.25,37.21,37.21,0,0,1-13.44,2.28,43.53,43.53,0,0,1-8.4-.85,50.56,50.56,0,0,1-8.29-2.4,48.07,48.07,0,0,1-7.52-3.67,31.24,31.24,0,0,1-6.12-4.73l6.06-9.59a6.26,6.26,0,0,1,1.91-1.73,5,5,0,0,1,2.58-.69,6.89,6.89,0,0,1,3.67,1.15q1.84,1.15,4.19,2.55a32.77,32.77,0,0,0,5.37,2.54,20.05,20.05,0,0,0,7.16,1.16q5.58,0,8.67-2.46t3.09-7.8a7.36,7.36,0,0,0-1.69-5,13.28,13.28,0,0,0-4.46-3.22,41.57,41.57,0,0,0-6.28-2.24q-3.53-1-7.22-2.15a51.68,51.68,0,0,1-7.22-2.92,22.68,22.68,0,0,1-6.28-4.55,21.23,21.23,0,0,1-4.46-7,28,28,0,0,1-1.7-10.41,24.74,24.74,0,0,1,2-9.7,25.13,25.13,0,0,1,5.89-8.44,29,29,0,0,1,9.52-5.91,35.09,35.09,0,0,1,12.92-2.22,49,49,0,0,1,7.92.64,41,41,0,0,1,7.31,1.88,40.17,40.17,0,0,1,6.46,3,29.8,29.8,0,0,1,5.37,3.92Z"/><path d="M17.72,496.88a11.81,11.81,0,0,1-.74,4.25,9.91,9.91,0,0,1-2,3.32,9,9,0,0,1-3.07,2.14,9.72,9.72,0,0,1-3.87.76H1.66L3.91,489H10.3a8,8,0,0,1,3.08.58,6.75,6.75,0,0,1,2.34,1.63,7.16,7.16,0,0,1,1.47,2.5A9.48,9.48,0,0,1,17.72,496.88Zm-2.71.06a8,8,0,0,0-.34-2.43,5.11,5.11,0,0,0-1-1.85,4.28,4.28,0,0,0-1.56-1.16,5.13,5.13,0,0,0-2.09-.41H6.3L4.55,505.23H8.29a6.41,6.41,0,0,0,2.73-.57A6,6,0,0,0,13.15,503a7.81,7.81,0,0,0,1.38-2.61A11.6,11.6,0,0,0,15,496.94Z"/><path d="M27.73,507.53a5.22,5.22,0,0,1-2-.36,4.38,4.38,0,0,1-1.54-1.06,4.86,4.86,0,0,1-1-1.7,6.53,6.53,0,0,1-.37-2.3,9,9,0,0,1,.52-3.1,8.15,8.15,0,0,1,1.42-2.54,6.59,6.59,0,0,1,2.13-1.7,5.75,5.75,0,0,1,2.63-.62,5.22,5.22,0,0,1,2,.36,4.47,4.47,0,0,1,1.54,1.06,4.86,4.86,0,0,1,1,1.7,6.49,6.49,0,0,1,.37,2.28,9.29,9.29,0,0,1-.52,3.1,8.6,8.6,0,0,1-1.42,2.54,6.73,6.73,0,0,1-2.13,1.71A5.67,5.67,0,0,1,27.73,507.53Zm.23-1.95a2.84,2.84,0,0,0,1.63-.49,4.43,4.43,0,0,0,1.26-1.32,7.24,7.24,0,0,0,.8-1.92,9.49,9.49,0,0,0,.28-2.28,4.23,4.23,0,0,0-.67-2.62,2.3,2.3,0,0,0-1.94-.85,2.83,2.83,0,0,0-1.64.49,4.4,4.4,0,0,0-1.25,1.32,6.73,6.73,0,0,0-.8,1.91,9,9,0,0,0-.28,2.28,4.33,4.33,0,0,0,.66,2.61A2.31,2.31,0,0,0,28,505.58Z"/><path d="M48.32,506.24a6,6,0,0,1-1.21.77,5.09,5.09,0,0,1-1.25.41,8.9,8.9,0,0,1-1.42.11,5,5,0,0,1-2-.38A4,4,0,0,1,41,506.06a5,5,0,0,1-.9-1.69,7.52,7.52,0,0,1-.31-2.19,9.43,9.43,0,0,1,.23-2.06,9,9,0,0,1,.64-1.89,8.57,8.57,0,0,1,1-1.64,7.21,7.21,0,0,1,1.35-1.3,6,6,0,0,1,1.61-.84,5.77,5.77,0,0,1,1.87-.3,4.24,4.24,0,0,1,3.71,1.8l-.78.95a1.24,1.24,0,0,1-.22.18.49.49,0,0,1-.63-.08,5.36,5.36,0,0,0-.44-.34,3.49,3.49,0,0,0-.67-.33,2.81,2.81,0,0,0-1-.16,3,3,0,0,0-1.6.46,4.37,4.37,0,0,0-1.32,1.26,6.74,6.74,0,0,0-.89,1.91,7.94,7.94,0,0,0-.34,2.39,5.11,5.11,0,0,0,.18,1.4,3.09,3.09,0,0,0,.52,1.06,2.33,2.33,0,0,0,.85.67,2.64,2.64,0,0,0,1.16.24,3.7,3.7,0,0,0,1-.12,3.66,3.66,0,0,0,.75-.28,3.47,3.47,0,0,0,.59-.37c.16-.14.32-.26.46-.37a2.82,2.82,0,0,1,.38-.28.65.65,0,0,1,.36-.12.62.62,0,0,1,.46.23l.63.77A11.74,11.74,0,0,1,48.32,506.24Z"/><path d="M66.93,494.34l-1.58,13H64.11a.8.8,0,0,1-.91-.89l.15-2.13a7.48,7.48,0,0,1-2.27,2.39,4.72,4.72,0,0,1-2.59.81A3.07,3.07,0,0,1,57,507.2a2.56,2.56,0,0,1-1-.95,4.18,4.18,0,0,1-.54-1.54,7.71,7.71,0,0,1,0-2.1l1-8.27h2.48l-1,8.27a4,4,0,0,0,.17,2.16,1.31,1.31,0,0,0,1.3.69,2.52,2.52,0,0,0,1.18-.32,4.66,4.66,0,0,0,1.17-.89,7.4,7.4,0,0,0,1-1.39,10.48,10.48,0,0,0,.83-1.82l.79-6.7Z"/><path d="M72.24,507.35l1.58-13h1.25a.87.87,0,0,1,.63.2.83.83,0,0,1,.22.64l-.16,2.09a7.64,7.64,0,0,1,2-2.32,4.06,4.06,0,0,1,2.36-.78,2.26,2.26,0,0,1,1.93.87,4.32,4.32,0,0,1,.67,2.52A7.42,7.42,0,0,1,84.91,495a4.36,4.36,0,0,1,2.53-.82,2.53,2.53,0,0,1,2.4,1.27,6,6,0,0,1,.42,3.65l-1,8.28H86.83l1-8.28a4.77,4.77,0,0,0-.09-2.16,1.11,1.11,0,0,0-1.16-.69,2.33,2.33,0,0,0-1.07.27,3.82,3.82,0,0,0-1,.8,7.59,7.59,0,0,0-.91,1.3,9.72,9.72,0,0,0-.74,1.77l-.83,7H79.53l1-8.28a10.61,10.61,0,0,0,.09-1.27,3.07,3.07,0,0,0-.14-.89,1,1,0,0,0-.41-.51,1.34,1.34,0,0,0-.73-.18,2.3,2.3,0,0,0-1.13.3,3.59,3.59,0,0,0-1,.87,7.28,7.28,0,0,0-.89,1.36,12.17,12.17,0,0,0-.75,1.81l-.82,6.79Z"/><path d="M106.42,504.94a11.19,11.19,0,0,1-1.29,1.17,8.13,8.13,0,0,1-1.29.81,5.6,5.6,0,0,1-1.38.46,7.51,7.51,0,0,1-1.56.15,5,5,0,0,1-2-.38,4.11,4.11,0,0,1-1.53-1.07,4.74,4.74,0,0,1-1-1.67,6.54,6.54,0,0,1-.34-2.19,9.66,9.66,0,0,1,.21-2,9,9,0,0,1,.62-1.88,9.26,9.26,0,0,1,1-1.66,6.7,6.7,0,0,1,1.34-1.32,5.78,5.78,0,0,1,1.67-.87,6,6,0,0,1,2-.32,5,5,0,0,1,1.73.28,3.79,3.79,0,0,1,1.21.73,2.76,2.76,0,0,1,.71,1,2.69,2.69,0,0,1,.23,1.05,3.49,3.49,0,0,1-.35,1.55,3.2,3.2,0,0,1-1.26,1.28,9.66,9.66,0,0,1-2.51,1,27.86,27.86,0,0,1-4.12.67c0,.08,0,.16,0,.23v.24a3.8,3.8,0,0,0,.73,2.53,2.7,2.7,0,0,0,2.18.86,4.32,4.32,0,0,0,1.07-.12,4.11,4.11,0,0,0,.84-.3,4,4,0,0,0,.65-.39l.52-.39.44-.31a.84.84,0,0,1,.42-.12.49.49,0,0,1,.25.07.91.91,0,0,1,.21.18Zm-3.71-9a3.17,3.17,0,0,0-1.41.32,3.54,3.54,0,0,0-1.15.87,5,5,0,0,0-.87,1.3,8.12,8.12,0,0,0-.57,1.64,28.74,28.74,0,0,0,3-.54,7.37,7.37,0,0,0,1.75-.65,1.69,1.69,0,0,0,1-1.59,1.27,1.27,0,0,0-.4-.89,1.69,1.69,0,0,0-.56-.33A2.2,2.2,0,0,0,102.71,495.94Z"/><path d="M115.46,497.45a8,8,0,0,1,2.32-2.47,4.83,4.83,0,0,1,2.64-.83,3.07,3.07,0,0,1,1.45.33,2.48,2.48,0,0,1,1,.95,4,4,0,0,1,.55,1.54,7.78,7.78,0,0,1,0,2.1l-1,8.28H120l1-8.28a4,4,0,0,0-.17-2.16,1.34,1.34,0,0,0-1.31-.69,2.53,2.53,0,0,0-1.2.33,4.91,4.91,0,0,0-1.18.92,7.93,7.93,0,0,0-1.07,1.44,9.45,9.45,0,0,0-.82,1.88l-.73,6.56H112l1.55-13h1.26a.84.84,0,0,1,.62.2.83.83,0,0,1,.22.64Z"/><path d="M130.1,504.84v-.2c0-.08,0-.19,0-.35s0-.36.06-.61.08-.59.13-1l.78-6.33h-1.4a.39.39,0,0,1-.31-.13.49.49,0,0,1-.09-.4l.12-1,2-.29,1-3.88a.7.7,0,0,1,.22-.34.52.52,0,0,1,.36-.12h1.33l-.55,4.37h3.34l-.2,1.81h-3.36l-.77,6.2c0,.35-.07.63-.1.85s0,.38,0,.5a2,2,0,0,0,0,.27.49.49,0,0,0,0,.11,1.25,1.25,0,0,0,.3.91,1,1,0,0,0,.78.31,1.51,1.51,0,0,0,.55-.09,2.75,2.75,0,0,0,.42-.2l.3-.2a.4.4,0,0,1,.23-.09.28.28,0,0,1,.18.06.7.7,0,0,1,.12.18l.53,1.21a4.92,4.92,0,0,1-1.46.87,4.66,4.66,0,0,1-1.63.31,2.85,2.85,0,0,1-2-.7A2.76,2.76,0,0,1,130.1,504.84Z"/><path d="M150.28,496.52a.7.7,0,0,1-.22.23.49.49,0,0,1-.28.07.69.69,0,0,1-.4-.14l-.51-.3a3.9,3.9,0,0,0-.73-.31,3.35,3.35,0,0,0-1-.14,3.2,3.2,0,0,0-1,.15,2.43,2.43,0,0,0-.78.42,1.73,1.73,0,0,0-.49.62,1.67,1.67,0,0,0-.18.76,1.18,1.18,0,0,0,.23.73,2.52,2.52,0,0,0,.6.51,5.29,5.29,0,0,0,.86.41l1,.38a9.33,9.33,0,0,1,1,.44,3.74,3.74,0,0,1,.86.59A2.68,2.68,0,0,1,150,503a4.29,4.29,0,0,1-.36,1.73,4.36,4.36,0,0,1-1,1.46,5.11,5.11,0,0,1-1.62,1,5.94,5.94,0,0,1-2.13.37,5.23,5.23,0,0,1-2.21-.45,4.63,4.63,0,0,1-1.58-1.14l.62-1a.74.74,0,0,1,.65-.37.65.65,0,0,1,.43.18,5.39,5.39,0,0,0,.52.39,3.72,3.72,0,0,0,.75.39,3.17,3.17,0,0,0,1.16.18,3.06,3.06,0,0,0,1.08-.18,2.49,2.49,0,0,0,.81-.48,2,2,0,0,0,.68-1.55,1.4,1.4,0,0,0-.23-.8,2,2,0,0,0-.6-.55,4.45,4.45,0,0,0-.85-.39l-1-.36c-.32-.13-.65-.26-1-.41a3.33,3.33,0,0,1-.85-.57,2.57,2.57,0,0,1-.6-.84,2.73,2.73,0,0,1-.23-1.2,4.11,4.11,0,0,1,.33-1.61,4.27,4.27,0,0,1,.95-1.37,4.76,4.76,0,0,1,1.51-1,5.39,5.39,0,0,1,2-.36,5.3,5.3,0,0,1,2.11.39,4.72,4.72,0,0,1,1.55,1.07Z"/><path d="M173.22,505.29a7.84,7.84,0,0,0,1.46-.13,6.49,6.49,0,0,0,1.12-.34,6.34,6.34,0,0,0,.83-.44c.22-.15.43-.3.59-.43l.43-.34a.58.58,0,0,1,.33-.14.41.41,0,0,1,.21,0,.38.38,0,0,1,.14.11l.92,1.15a8.62,8.62,0,0,1-2.79,2.05,8.85,8.85,0,0,1-3.68.73,7,7,0,0,1-3-.6,6.46,6.46,0,0,1-2.23-1.65,7.4,7.4,0,0,1-1.38-2.52,10.31,10.31,0,0,1-.48-3.22,13.22,13.22,0,0,1,.33-3,11.42,11.42,0,0,1,1-2.63,10.06,10.06,0,0,1,1.51-2.16,9,9,0,0,1,4.27-2.65,9.23,9.23,0,0,1,2.6-.36,9,9,0,0,1,1.79.17,6.76,6.76,0,0,1,1.46.49,6.43,6.43,0,0,1,1.19.78,6.84,6.84,0,0,1,1,1l-.9,1.08a1.07,1.07,0,0,1-.25.23.56.56,0,0,1-.35.09.73.73,0,0,1-.5-.25,6,6,0,0,0-.69-.54,4.51,4.51,0,0,0-1.1-.54,5.19,5.19,0,0,0-1.77-.25,6.27,6.27,0,0,0-4.88,2.24,8,8,0,0,0-1.45,2.62,10.41,10.41,0,0,0-.54,3.45,7.94,7.94,0,0,0,.36,2.48,5.47,5.47,0,0,0,1,1.87,4.38,4.38,0,0,0,1.53,1.18A4.54,4.54,0,0,0,173.22,505.29Z"/><path d="M184.86,507.35l2.29-18.9h2.46l-2.29,18.9Z"/><path d="M204.63,504.94a11.19,11.19,0,0,1-1.29,1.17,8.13,8.13,0,0,1-1.29.81,5.6,5.6,0,0,1-1.38.46,7.51,7.51,0,0,1-1.56.15,5,5,0,0,1-2-.38,4.23,4.23,0,0,1-1.54-1.07,4.72,4.72,0,0,1-1-1.67,6.54,6.54,0,0,1-.34-2.19,9.66,9.66,0,0,1,.21-2,9,9,0,0,1,.62-1.88,8.72,8.72,0,0,1,1-1.66,6.7,6.7,0,0,1,1.34-1.32,5.78,5.78,0,0,1,1.67-.87,5.92,5.92,0,0,1,2-.32,5,5,0,0,1,1.73.28,3.79,3.79,0,0,1,1.21.73,2.76,2.76,0,0,1,.71,1,2.69,2.69,0,0,1,.23,1.05,3.49,3.49,0,0,1-.35,1.55,3.2,3.2,0,0,1-1.26,1.28,9.61,9.61,0,0,1-2.52,1,27.47,27.47,0,0,1-4.11.67c0,.08,0,.16,0,.23v.24a3.86,3.86,0,0,0,.72,2.53,2.73,2.73,0,0,0,2.19.86,4.32,4.32,0,0,0,1.07-.12,4.11,4.11,0,0,0,.84-.3,4,4,0,0,0,.65-.39l.52-.39.44-.31a.84.84,0,0,1,.42-.12.49.49,0,0,1,.25.07,1.18,1.18,0,0,1,.21.18Zm-3.71-9a3.17,3.17,0,0,0-1.41.32,3.54,3.54,0,0,0-1.15.87,5,5,0,0,0-.87,1.3,8.12,8.12,0,0,0-.57,1.64,28.74,28.74,0,0,0,3-.54,7.37,7.37,0,0,0,1.75-.65,1.69,1.69,0,0,0,1-1.59,1.32,1.32,0,0,0-.1-.46,1,1,0,0,0-.31-.43,1.55,1.55,0,0,0-.55-.33A2.2,2.2,0,0,0,200.92,495.94Z"/><path d="M218.15,504.1a10,10,0,0,1-1,1.41,6.65,6.65,0,0,1-1.1,1.09,5,5,0,0,1-1.23.69,3.87,3.87,0,0,1-1.34.24,3.23,3.23,0,0,1-1.4-.3,3,3,0,0,1-1.09-.88,4.22,4.22,0,0,1-.71-1.44,7.41,7.41,0,0,1-.24-2,9.09,9.09,0,0,1,.28-2.26,9.41,9.41,0,0,1,.83-2.08,9.88,9.88,0,0,1,1.28-1.79,8.07,8.07,0,0,1,1.68-1.41,7.81,7.81,0,0,1,2-.91,7.52,7.52,0,0,1,2.23-.33,10.14,10.14,0,0,1,1.66.13,7.37,7.37,0,0,1,1.61.47l-1.56,12.6h-1.31a.72.72,0,0,1-.65-.25,1.07,1.07,0,0,1-.17-.61ZM219,496a6.78,6.78,0,0,0-1-.07,4.44,4.44,0,0,0-2.14.53,5.67,5.67,0,0,0-1.74,1.43A7.22,7.22,0,0,0,213,500a7.11,7.11,0,0,0-.43,2.48,4.05,4.05,0,0,0,.49,2.23,1.58,1.58,0,0,0,1.41.74,2.1,2.1,0,0,0,1.18-.39,4.48,4.48,0,0,0,1.1-1.08,8.88,8.88,0,0,0,1-1.62,13.53,13.53,0,0,0,.78-2Z"/><path d="M230.42,497.85a10.91,10.91,0,0,1,1.1-1.84,5.59,5.59,0,0,1,1.23-1.21,3,3,0,0,1,1.33-.54,2.41,2.41,0,0,1,1.38.21l-.45,2.41a2.58,2.58,0,0,0-2.9.44,8.33,8.33,0,0,0-2,4.13l-.72,5.9h-2.44l1.58-13h1.25a.88.88,0,0,1,.63.2.87.87,0,0,1,.21.64Z"/><path d="M243.55,494.34l-1.58,13h-2.46l1.57-13Zm.84-4a1.66,1.66,0,0,1-.14.66,2,2,0,0,1-.39.55,1.79,1.79,0,0,1-.54.37,1.6,1.6,0,0,1-.63.14,1.43,1.43,0,0,1-.61-.14,1.59,1.59,0,0,1-.52-.37,1.87,1.87,0,0,1-.36-.55,1.63,1.63,0,0,1,0-1.32,1.87,1.87,0,0,1,.36-.55,2,2,0,0,1,.53-.38,1.56,1.56,0,0,1,.63-.14,1.51,1.51,0,0,1,.62.14,1.58,1.58,0,0,1,.54.37,1.62,1.62,0,0,1,.37.55A1.52,1.52,0,0,1,244.39,490.32Z"/><path d="M252.49,497.45A8,8,0,0,1,254.8,495a4.85,4.85,0,0,1,2.64-.83,3.14,3.14,0,0,1,1.46.33,2.6,2.6,0,0,1,1,.95,4.18,4.18,0,0,1,.54,1.54,7.36,7.36,0,0,1,0,2.1l-1,8.28H257l1-8.28a4,4,0,0,0-.17-2.16,1.33,1.33,0,0,0-1.3-.69,2.57,2.57,0,0,0-1.21.33,5.12,5.12,0,0,0-1.18.92,7.46,7.46,0,0,0-1.06,1.44,9.46,9.46,0,0,0-.83,1.88l-.73,6.56H249l1.55-13h1.26a.88.88,0,0,1,.63.2.87.87,0,0,1,.21.64Z"/><path d="M278.24,494.8l-.12.83a.73.73,0,0,1-.53.67l-1.54.31a3,3,0,0,1,.15.64,4.26,4.26,0,0,1,.05.73,4.35,4.35,0,0,1-.15,1.13,4.85,4.85,0,0,1-.35.93,6.94,6.94,0,0,1-.46.8c-.16.25-.31.5-.45.76a4.54,4.54,0,0,0-.35.78,2.48,2.48,0,0,0-.14.87,1.9,1.9,0,0,0,.25,1,10,10,0,0,0,.55.91,8.78,8.78,0,0,1,.55,1,3,3,0,0,1,.25,1.26,4,4,0,0,1-.44,1.76,4.4,4.4,0,0,1-1.21,1.46,5.93,5.93,0,0,1-1.92,1,8.14,8.14,0,0,1-2.55.37,8.23,8.23,0,0,1-2.07-.24,5.33,5.33,0,0,1-1.58-.66,3.23,3.23,0,0,1-1-1,2.51,2.51,0,0,1-.35-1.32,2.91,2.91,0,0,1,.35-1.47,3.34,3.34,0,0,1,.95-1.1,5.32,5.32,0,0,1,1.4-.74,8.35,8.35,0,0,1,1.67-.43,11.92,11.92,0,0,1,1.8-.12,12.85,12.85,0,0,1,1.78.13,2.27,2.27,0,0,1-.16-.46,2.23,2.23,0,0,1-.06-.54,3.06,3.06,0,0,1,.12-.81,4.28,4.28,0,0,1,.37-.93,4,4,0,0,1-1.09.51,4.91,4.91,0,0,1-1.4.18,4,4,0,0,1-1.39-.24A3.2,3.2,0,0,1,268,502a3.37,3.37,0,0,1-.78-1.2,4.54,4.54,0,0,1-.29-1.68,5.08,5.08,0,0,1,.35-1.83,4.58,4.58,0,0,1,1-1.59,4.79,4.79,0,0,1,1.65-1.13,5.57,5.57,0,0,1,2.27-.43,5.19,5.19,0,0,1,1.32.16,4.14,4.14,0,0,1,1.14.49Zm-4.57,12.8a3.12,3.12,0,0,0-.05-.55,3.06,3.06,0,0,0-.12-.48,13.11,13.11,0,0,0-2.84-.22,7.12,7.12,0,0,0-2,.35,2.63,2.63,0,0,0-1.14.75,1.59,1.59,0,0,0-.36,1,1.47,1.47,0,0,0,.73,1.34,3.94,3.94,0,0,0,2.12.47,5,5,0,0,0,1.48-.21,4,4,0,0,0,1.15-.58,2.54,2.54,0,0,0,.73-.84A2.1,2.1,0,0,0,273.67,507.6Zm-2.44-6.18a2.36,2.36,0,0,0,1.17-.29,2.76,2.76,0,0,0,.86-.77,3.55,3.55,0,0,0,.52-1.07,4.57,4.57,0,0,0,.2-1.21,2.28,2.28,0,0,0-.55-1.65,2,2,0,0,0-1.51-.57,2.39,2.39,0,0,0-1.15.28,2.74,2.74,0,0,0-.86.73,3.44,3.44,0,0,0-.52,1.05,4.24,4.24,0,0,0-.18,1.22,2.44,2.44,0,0,0,.53,1.69A1.89,1.89,0,0,0,271.23,501.42Z"/><path d="M303.1,491.93a1,1,0,0,1-.29.3.6.6,0,0,1-.35.1.72.72,0,0,1-.47-.22c-.17-.14-.38-.3-.63-.47a5.1,5.1,0,0,0-.91-.48,3.56,3.56,0,0,0-1.31-.21,3.86,3.86,0,0,0-1.41.24,3.08,3.08,0,0,0-1,.66,2.82,2.82,0,0,0-.64,1,3.44,3.44,0,0,0-.21,1.2,1.91,1.91,0,0,0,.3,1.09,2.92,2.92,0,0,0,.81.75,6.26,6.26,0,0,0,1.13.56l1.3.5c.45.18.88.38,1.3.59a5.18,5.18,0,0,1,1.14.8,3.65,3.65,0,0,1,.8,1.15,3.82,3.82,0,0,1,.31,1.63,6.88,6.88,0,0,1-.45,2.49,6.24,6.24,0,0,1-1.31,2.06,6.18,6.18,0,0,1-2,1.4,6.93,6.93,0,0,1-2.71.51,6.6,6.6,0,0,1-1.56-.18,6.51,6.51,0,0,1-1.41-.48,5.87,5.87,0,0,1-1.19-.76,5.35,5.35,0,0,1-1-1l.92-1.26a1.44,1.44,0,0,1,.3-.24.64.64,0,0,1,.35-.1.64.64,0,0,1,.36.13l.41.34.5.44a4.18,4.18,0,0,0,.66.43,3.68,3.68,0,0,0,.85.34,4.23,4.23,0,0,0,1.12.14,4,4,0,0,0,1.51-.27,3.33,3.33,0,0,0,1.15-.73,3.23,3.23,0,0,0,.73-1.14,4.36,4.36,0,0,0,.24-1.47,2,2,0,0,0-.3-1.14,2.57,2.57,0,0,0-.8-.77,5.64,5.64,0,0,0-1.13-.54l-1.29-.47c-.44-.17-.87-.35-1.3-.56a4.22,4.22,0,0,1-1.13-.78,3.57,3.57,0,0,1-.8-1.18,4.38,4.38,0,0,1-.3-1.72,6.13,6.13,0,0,1,.41-2.2,5.61,5.61,0,0,1,1.2-1.86,5.81,5.81,0,0,1,1.9-1.29,6.38,6.38,0,0,1,2.53-.48,6,6,0,0,1,2.6.56,5.29,5.29,0,0,1,1.89,1.49Z"/><path d="M318.85,504.94a12.13,12.13,0,0,1-1.3,1.17,7.62,7.62,0,0,1-1.28.81,5.6,5.6,0,0,1-1.38.46,7.65,7.65,0,0,1-1.56.15,5.05,5.05,0,0,1-2-.38,4.27,4.27,0,0,1-1.53-1.07,4.74,4.74,0,0,1-1-1.67,6.81,6.81,0,0,1-.33-2.19,9,9,0,0,1,.21-2,8.46,8.46,0,0,1,.62-1.88,8.23,8.23,0,0,1,1-1.66,6.7,6.7,0,0,1,1.34-1.32,5.73,5.73,0,0,1,1.66-.87,6,6,0,0,1,2-.32,4.94,4.94,0,0,1,1.73.28,3.68,3.68,0,0,1,1.21.73,2.76,2.76,0,0,1,.71,1,2.52,2.52,0,0,1,.23,1.05,3.49,3.49,0,0,1-.34,1.55,3.2,3.2,0,0,1-1.26,1.28,9.61,9.61,0,0,1-2.52,1,27.92,27.92,0,0,1-4.11.67,1.85,1.85,0,0,0,0,.23v.24a3.86,3.86,0,0,0,.72,2.53,2.7,2.7,0,0,0,2.19.86,4.32,4.32,0,0,0,1.07-.12,4.11,4.11,0,0,0,.84-.3,4.47,4.47,0,0,0,.65-.39l.52-.39a5.14,5.14,0,0,1,.44-.31.79.79,0,0,1,.42-.12.52.52,0,0,1,.25.07l.21.18Zm-3.72-9a3.1,3.1,0,0,0-1.4.32,3.58,3.58,0,0,0-1.16.87,5.27,5.27,0,0,0-.87,1.3,8.11,8.11,0,0,0-.56,1.64,28.48,28.48,0,0,0,3-.54,7.2,7.2,0,0,0,1.75-.65,1.87,1.87,0,0,0,.81-.75,1.74,1.74,0,0,0,.2-.84,1.29,1.29,0,0,0-.09-.46,1.27,1.27,0,0,0-.31-.43,1.55,1.55,0,0,0-.55-.33A2.26,2.26,0,0,0,315.13,495.94Z"/><path d="M327.88,497.85A10.29,10.29,0,0,1,329,496a5.19,5.19,0,0,1,1.23-1.21,2.94,2.94,0,0,1,1.32-.54,2.4,2.4,0,0,1,1.38.21l-.45,2.41a2.57,2.57,0,0,0-2.89.44,8.33,8.33,0,0,0-2,4.13l-.72,5.9h-2.45l1.58-13h1.25a.85.85,0,0,1,.63.2.83.83,0,0,1,.22.64Z"/><path d="M348.93,494.34l-6.49,13h-2.1l-3.33-13h2a.64.64,0,0,1,.44.14.75.75,0,0,1,.22.36l1.79,8c.06.36.11.71.14,1s.06.68.08,1c.11-.34.22-.68.34-1s.25-.68.4-1l3.8-8a1,1,0,0,1,.3-.36.74.74,0,0,1,.43-.14Z"/><path d="M357,494.34l-1.58,13h-2.46l1.57-13Zm.84-4a1.66,1.66,0,0,1-.14.66,2,2,0,0,1-.39.55,1.79,1.79,0,0,1-.54.37,1.6,1.6,0,0,1-.63.14,1.51,1.51,0,0,1-.62-.14,1.55,1.55,0,0,1-.51-.37,1.87,1.87,0,0,1-.36-.55,1.63,1.63,0,0,1,0-1.32,1.87,1.87,0,0,1,.36-.55,2,2,0,0,1,.53-.38,1.47,1.47,0,0,1,1.25,0,1.58,1.58,0,0,1,.54.37,1.62,1.62,0,0,1,.37.55A1.52,1.52,0,0,1,357.8,490.32Z"/><path d="M371,506.24a6.26,6.26,0,0,1-1.21.77,5.3,5.3,0,0,1-1.26.41,8.77,8.77,0,0,1-1.41.11,5.11,5.11,0,0,1-2-.38,4.1,4.1,0,0,1-1.47-1.09,4.64,4.64,0,0,1-.9-1.69,7.2,7.2,0,0,1-.31-2.19,9.43,9.43,0,0,1,.23-2.06,8.41,8.41,0,0,1,.64-1.89,7.69,7.69,0,0,1,1-1.64,7.16,7.16,0,0,1,1.34-1.3,6.08,6.08,0,0,1,1.62-.84,5.71,5.71,0,0,1,1.86-.3,4.56,4.56,0,0,1,2.17.46,4.67,4.67,0,0,1,1.55,1.34l-.78.95a1.3,1.3,0,0,1-.23.18.5.5,0,0,1-.26.08.53.53,0,0,1-.36-.16l-.45-.34a3.22,3.22,0,0,0-.67-.33,2.75,2.75,0,0,0-1-.16,3,3,0,0,0-1.6.46,4.15,4.15,0,0,0-1.32,1.26,6.49,6.49,0,0,0-.9,1.91,8.27,8.27,0,0,0-.33,2.39,5.11,5.11,0,0,0,.18,1.4,3.09,3.09,0,0,0,.52,1.06,2.29,2.29,0,0,0,.84.67,2.7,2.7,0,0,0,1.16.24,3.6,3.6,0,0,0,1-.12,3.55,3.55,0,0,0,.76-.28,3,3,0,0,0,.58-.37l.46-.37a3.68,3.68,0,0,1,.39-.28.62.62,0,0,1,.35-.12.61.61,0,0,1,.46.23l.63.77A10.85,10.85,0,0,1,371,506.24Z"/><path d="M387.76,504.94a12.13,12.13,0,0,1-1.3,1.17,7.62,7.62,0,0,1-1.28.81,5.6,5.6,0,0,1-1.38.46,7.65,7.65,0,0,1-1.56.15,5.05,5.05,0,0,1-2-.38,4.27,4.27,0,0,1-1.53-1.07,4.74,4.74,0,0,1-1-1.67,6.8,6.8,0,0,1-.34-2.19,9.66,9.66,0,0,1,.21-2,9,9,0,0,1,.63-1.88,8.23,8.23,0,0,1,1-1.66,6.7,6.7,0,0,1,1.34-1.32,5.73,5.73,0,0,1,1.66-.87,6,6,0,0,1,2-.32,5,5,0,0,1,1.73.28,3.68,3.68,0,0,1,1.21.73,2.76,2.76,0,0,1,.71,1,2.52,2.52,0,0,1,.23,1.05,3.49,3.49,0,0,1-.34,1.55,3.2,3.2,0,0,1-1.26,1.28,9.61,9.61,0,0,1-2.52,1,27.92,27.92,0,0,1-4.11.67,1.85,1.85,0,0,0,0,.23v.24a3.86,3.86,0,0,0,.72,2.53,2.7,2.7,0,0,0,2.18.86,4.4,4.4,0,0,0,1.08-.12,4.34,4.34,0,0,0,.84-.3,3.88,3.88,0,0,0,.64-.39l.52-.39.45-.31a.79.79,0,0,1,.42-.12.52.52,0,0,1,.25.07l.21.18Zm-3.72-9a3.17,3.17,0,0,0-1.41.32,3.65,3.65,0,0,0-1.15.87,5.27,5.27,0,0,0-.87,1.3,7.54,7.54,0,0,0-.56,1.64,28.48,28.48,0,0,0,3-.54,7.2,7.2,0,0,0,1.75-.65,1.87,1.87,0,0,0,.81-.75,1.74,1.74,0,0,0,.2-.84,1.29,1.29,0,0,0-.09-.46,1.27,1.27,0,0,0-.31-.43,1.55,1.55,0,0,0-.55-.33A2.26,2.26,0,0,0,384,495.94Z"/><path d="M401.77,496.52a.71.71,0,0,1-.23.23.45.45,0,0,1-.27.07.7.7,0,0,1-.41-.14l-.51-.3a4.09,4.09,0,0,0-.72-.31,3.42,3.42,0,0,0-1-.14,3.2,3.2,0,0,0-1,.15,2.28,2.28,0,0,0-.77.42,1.73,1.73,0,0,0-.67,1.38,1.12,1.12,0,0,0,.23.73,2.18,2.18,0,0,0,.6.51,5.17,5.17,0,0,0,.85.41c.32.12.65.24,1,.38a9.49,9.49,0,0,1,1,.44,3.68,3.68,0,0,1,.85.59,2.73,2.73,0,0,1,.6.85,2.76,2.76,0,0,1,.23,1.2,4.29,4.29,0,0,1-.36,1.73,4.23,4.23,0,0,1-1,1.46,5,5,0,0,1-1.62,1,5.93,5.93,0,0,1-2.12.37,5.24,5.24,0,0,1-2.22-.45,4.58,4.58,0,0,1-1.57-1.14l.61-1a.74.74,0,0,1,.65-.37.65.65,0,0,1,.43.18c.14.12.32.25.52.39a4.13,4.13,0,0,0,.76.39,3.12,3.12,0,0,0,1.15.18,3.06,3.06,0,0,0,1.08-.18,2.65,2.65,0,0,0,.82-.48,2.12,2.12,0,0,0,.68-1.55,1.33,1.33,0,0,0-.24-.8,2,2,0,0,0-.6-.55,4.45,4.45,0,0,0-.85-.39l-1-.36c-.33-.13-.66-.26-1-.41a3.33,3.33,0,0,1-.85-.57,2.57,2.57,0,0,1-.6-.84,2.89,2.89,0,0,1-.23-1.2,4.11,4.11,0,0,1,.33-1.61,4.31,4.31,0,0,1,1-1.37,4.54,4.54,0,0,1,1.51-1,5.85,5.85,0,0,1,4.12,0,4.87,4.87,0,0,1,1.56,1.07Z"/></g></g></svg>