<?xml version="1.0" encoding="utf-8"?>
<!-- Generator: Adobe Illustrator 24.1.0, SVG Export Plug-In . SVG Version: 6.00 Build 0)  -->
<svg version="1.1" id="Layer_1" xmlns="http://www.w3.org/2000/svg" xmlns:xlink="http://www.w3.org/1999/xlink" x="0px" y="0px"
	 viewBox="0 0 419.7 89.4" style="enable-background:new 0 0 419.7 89.4;" xml:space="preserve">
<style type="text/css">
	.st0{fill:#FFFFFF;}
	.st1{fill:#EF2C1D;}
</style>
<path class="st0" d="M209.9,0c66.9,0,133.7,0,200.6,0c1.2,0,2.4,0,3.6,0.3c3.4,0.9,5.6,3.9,5.6,7.6c0,9.6,0,19.2,0,28.8
	c0,14.7,0,29.4,0,44.2c0,5.6-3,8.6-8.6,8.6c-134.2,0-268.3,0-402.5,0c-4.4,0-7.5-2.2-8.4-6C0,82.7,0,82,0,81.2C0,56.9,0,32.6,0,8.3
	c0-5,3.1-8.2,8.1-8.2c2.2,0,4.4,0,6.6,0C79.8,0,144.8,0,209.9,0z M209.7,83.9c67,0,133.9,0,200.9,0c3.2,0,3.6-0.5,3.6-3.7
	c0-23.8,0-47.6,0-71.3c0-2.7-0.6-3.3-3.2-3.3c-134.1,0-268.1,0-402.2,0c-2.7,0-3.3,0.6-3.3,3.3c0,23.9,0,47.8,0,71.8
	c0,0.4,0,0.8,0,1.2c0.2,1.3,0.8,2,2.1,2.1c0.6,0,1.2,0,1.7,0C76.2,83.9,142.9,83.9,209.7,83.9z"/>
<path class="st0" d="M295.7,21.4c8.7-1.2,17.4-2.1,26,0.1c1.6,0.4,3.2,1.1,4.6,1.9c6.8,3.8,8,15,0.7,19.4c-0.2,0.1-0.3,0.2-0.5,0.4
	c0.3,0.2,0.5,0.3,0.7,0.4c5.1,2.4,7.4,6.2,7.2,11.8c-0.2,6.6-3.4,11.1-9.7,13.1c-3.1,1-6.3,1.5-9.6,1.8c-6.3,0.4-12.6,0.2-18.9-1.1
	c-0.2,0-0.4-0.1-0.6-0.2C295.7,53.2,295.7,37.4,295.7,21.4z M306.4,48.2c0,4.6,0,8.7,0,13c1,0.1,2,0.2,2.9,0.2c2,0,3.9,0.1,5.9-0.2
	c1.6-0.2,3.3-0.7,4.8-1.2c1.7-0.6,2.6-2,2.9-3.8c0.7-3.7-0.8-6.4-4.5-7.1C314.6,48.5,310.6,48.5,306.4,48.2z M306.3,39.8
	c3,0,5.8,0,8.7,0c0.9,0,1.9-0.3,2.8-0.6c2.4-0.8,3.5-2.4,3.4-4.9c0-2.7-1.4-4.4-4.5-4.8c-3.1-0.4-6.3-0.3-9.5-0.3
	c-0.3,0-0.9,0.6-0.9,0.9C306.3,33.4,306.3,36.6,306.3,39.8z"/>
<path class="st0" d="M231.9,69.8c-3,0-5.8,0.1-8.7-0.1c-0.4,0-0.9-0.7-1.2-1.2c-5-7.7-10-15.4-15.1-23.1c-1.8-2.6-3.9-5-6.2-7.4
	c0,10.5,0,21,0,31.6c-3.7,0-7.2,0-10.8,0c0-16.3,0-32.6,0-49c2.9,0,5.7,0,8.5,0c0.5,0,1,0.5,1.3,0.9c4.6,5.6,9.2,11.2,13.6,16.9
	c2.6,3.4,5,7,7.7,10.9c0-9.8,0-19.2,0-28.7c3.8,0,7.3,0,11,0C231.9,37.1,231.9,53.4,231.9,69.8z"/>
<path class="st0" d="M243.5,21.2c2.5-0.3,5-0.6,7.6-0.8c6.4-0.4,12.8-0.6,19.1,1.2c9.4,2.7,15.1,9.8,16,19.6c0.4,4.3,0.3,8.6-1,12.8
	c-2.6,8.7-8.8,13.5-17.3,15.4c-7.8,1.8-15.7,1.2-23.6-0.1c-0.4-0.1-0.9-0.7-0.9-1.1c0-15.5,0-31.1,0-46.6
	C243.3,21.7,243.3,21.6,243.5,21.2z M254.5,29.8c0,10.4,0,20.7,0,31c2.5,0,5,0.2,7.4,0c6.4-0.5,10.8-4.2,12.4-10.1
	c1-3.8,0.9-7.7-0.1-11.5c-1.3-4.7-4.2-7.7-9-8.9C261.7,29.4,258.1,29.5,254.5,29.8z"/>
<path class="st0" d="M376.1,60.6c8.4,0,16.6,0,24.9,0c0,3.1,0,6.1,0,9.2c-12.8,0-25.6,0-38.6,0c0.2-3.1-0.4-6.1,1.4-9.1
	c6.3-10.1,13-19.9,20.5-29.1c0.3-0.4,0.6-0.8,1.1-1.4c-7.4,0-14.6,0-21.9,0c0-3.2,0-6.2,0-9.2c12.2,0,24.4,0,36.7,0
	c0,2.4,0.1,4.8,0,7.2c0,0.5-0.6,1-0.9,1.4c-8.4,9.3-15.8,19.4-22.5,29.9C376.6,59.7,376.5,60,376.1,60.6z"/>
<path class="st0" d="M18.7,20.8c3.9,0,7.6,0,11.4,0.1c0.4,0,0.9,0.7,1,1.2c3.2,8.9,6.2,17.9,9.4,26.8c0.9,2.6,1.9,5.1,3.1,8
	c0.6-1.5,1.1-2.7,1.6-3.9c3.7-10.3,7.3-20.6,10.9-30.9c0.4-1,0.8-1.4,1.9-1.4c3.3,0.1,6.7,0,10.2,0c-0.1,0.5-0.2,0.8-0.3,1.2
	c-5.5,15.8-11.5,31.4-18.5,46.6c-0.5,1-1,1.4-2.1,1.4c-2.7-0.1-5.5,0-8.2-0.1c-0.5,0-1.2-0.4-1.4-0.9c-7.2-15.4-13.4-31.2-18.9-47.3
	C18.8,21.4,18.8,21.1,18.7,20.8z"/>
<path class="st1" d="M183.3,69.8c-4,0-7.8,0-11.6-0.1c-0.3,0-0.8-0.7-1-1.2c-2.6-7.4-5.2-14.9-7.8-22.4c-1.4-4.1-3-8.1-4.7-12.6
	c-1.1,2.9-2.2,5.3-3,7.7c-3.2,9-6.3,18.1-9.4,27.1c-0.4,1.1-0.8,1.4-1.9,1.4c-3.4-0.1-6.8,0-10.4,0c1.6-4.5,3-8.9,4.7-13.1
	c4.7-11.6,9.5-23.1,14.2-34.6c0.4-1,0.9-1.4,2-1.3c2.6,0.1,5.2,0.1,7.8,0c1.1,0,1.7,0.3,2.1,1.4c6.5,14.4,12.3,29.1,17.6,44
	C182.3,67.2,182.7,68.4,183.3,69.8z"/>
<path class="st0" d="M97.3,58.3c4.6,2.4,9.3,3.3,14.2,3.1c1.3-0.1,2.7-0.3,3.9-0.7c3.5-1.2,4.3-5.4,1.5-7.8c-1.2-1-2.6-1.7-4.1-2.3
	c-2.9-1.3-6-2.3-8.9-3.5c-8.8-3.8-11.7-13.7-6.2-21.1c3-4,7.2-5.6,11.9-6.1c5.8-0.6,11.4,0,16.7,2.5c0.4,0.2,0.8,0.4,1.3,0.7
	c-1.1,2.9-2.1,5.7-3.2,8.6c-0.8-0.3-1.4-0.6-2.1-0.9c-4-1.7-8.2-2.2-12.5-1.3c-1.8,0.4-3.1,1.3-3.4,3.2c-0.4,2,0.4,3.6,2.1,4.5
	c1.6,0.9,3.4,1.6,5.1,2.4c2.8,1.2,5.7,2.3,8.5,3.6c8.9,4.2,9,13.3,6.8,19.1c-1.5,3.8-4.5,6.2-8.4,7.3c-8.4,2.4-16.7,1.8-24.7-1.6
	c-0.5-0.2-1-0.5-1.6-0.8C95.2,64.2,96.2,61.3,97.3,58.3z"/>
<path class="st0" d="M343.3,20.8c3.7,0,7.2,0,10.9,0c0,16.3,0,32.6,0,48.9c-3.7,0-7.2,0-10.9,0C343.3,53.4,343.3,37.2,343.3,20.8z"
	/>
<path class="st0" d="M85.7,69.8c-3.6,0-7.1,0-10.8,0c0-16.3,0-32.5,0-48.9c3.5,0,7.1,0,10.8,0C85.7,37.1,85.7,53.3,85.7,69.8z"/>
</svg>
