<svg xmlns="http://www.w3.org/2000/svg" width="21.974" height="22.012" viewBox="0 0 21.974 22.012">
  <g id="phone" transform="translate(0.937 1.055)">
    <rect id="Area" width="20" height="20" fill="#fcfcfc" opacity="0"/>
    <g id="Icon" transform="translate(1.29 2.499)">
      <path id="_1678e70f-447d-4c4c-88f3-45bbb2051c7b" data-name="1678e70f-447d-4c4c-88f3-45bbb2051c7b" d="M14.383,4.778a4.778,4.778,0,0,1,3.774,3.775M14.383.956a8.6,8.6,0,0,1,7.6,7.588m-.956,7.626v2.867a1.911,1.911,0,0,1-2.083,1.911,18.923,18.923,0,0,1-8.247-2.934A18.631,18.631,0,0,1,4.96,12.28,18.915,18.915,0,0,1,2.026,3.995a1.912,1.912,0,0,1,1.9-2.084H6.8A1.912,1.912,0,0,1,8.706,3.555,12.233,12.233,0,0,0,9.375,6.24a1.913,1.913,0,0,1-.43,2.017L7.731,9.471A15.3,15.3,0,0,0,13.465,15.2l1.214-1.213a1.909,1.909,0,0,1,2.016-.43,12.3,12.3,0,0,0,2.686.669A1.91,1.91,0,0,1,21.024,16.17Z" transform="translate(-3.289 -3.455)" fill="none" stroke="#fff" stroke-linecap="round" stroke-linejoin="round" stroke-width="1.911"/>
    </g>
  </g>
</svg>
