<svg xmlns="http://www.w3.org/2000/svg" width="26.818" height="25" viewBox="0 0 26.818 25">
  <g id="twitter" transform="translate(0.909)">
    <rect id="Area" width="25" height="25" fill="#fcfcfc" opacity="0"/>
    <g id="Icon" transform="translate(0 2.304)">
      <path id="_29e7e80b-6c08-4459-9315-b36507bdf7e2" data-name="29e7e80b-6c08-4459-9315-b36507bdf7e2" d="M25.909,2.729a12.372,12.372,0,0,1-3.567,1.739,5.091,5.091,0,0,0-8.932,3.409V9.014A12.114,12.114,0,0,1,3.181,3.866S-1.363,14.093,8.864,18.639A13.237,13.237,0,0,1,.909,20.912c10.227,5.681,22.727,0,22.727-13.069a5.07,5.07,0,0,0-.091-.942A8.771,8.771,0,0,0,25.909,2.729Z" transform="translate(-0.909 -2.718)" fill="none" stroke="#fff" stroke-linecap="round" stroke-linejoin="round" stroke-width="1.818"/>
    </g>
  </g>
</svg>
