<svg xmlns="http://www.w3.org/2000/svg" width="27.715" height="27.712" viewBox="0 0 27.715 27.712">
  <g id="whatsapp" transform="translate(186.422 -406.39)">
    <path id="Path_77" data-name="Path 77" d="M-159.207,421.029c-.068.506-.116,1.015-.208,1.517a13.19,13.19,0,0,1-5.773,8.822,12.761,12.761,0,0,1-6.045,2.167,13.1,13.1,0,0,1-7.834-1.634.912.912,0,0,0-.8-.086c-1.563.5-3.133.976-4.7,1.449a.986.986,0,0,1-.526.023c-.274-.078-.36-.347-.264-.692.461-1.673.92-3.348,1.39-5.019a.589.589,0,0,0-.072-.51,12.744,12.744,0,0,1-1.754-5,13.053,13.053,0,0,1,2.624-9.911,13.037,13.037,0,0,1,7.82-4.959c.575-.125,1.167-.172,1.751-.257.086-.013.169-.032.254-.047h1.565a1.484,1.484,0,0,0,.2.043,12.717,12.717,0,0,1,5.828,1.837,13.187,13.187,0,0,1,6.339,9.178c.093.5.14,1.01.208,1.515Zm-24.943,11.019c.117-.028.2-.042.278-.067,1.269-.391,2.547-.757,3.8-1.186a1.6,1.6,0,0,1,1.437.165,11.941,11.941,0,0,0,9.315,1.169,12.26,12.26,0,0,0,9.051-11.08,11.611,11.611,0,0,0-2.355-8.056,11.946,11.946,0,0,0-12.406-4.807,11.72,11.72,0,0,0-8.032,5.608,12.034,12.034,0,0,0-1.54,9.142,11.515,11.515,0,0,0,1.577,3.833.917.917,0,0,1,.119.814c-.192.64-.364,1.286-.543,1.93Z" fill="#fff" stroke="#fff" stroke-width="1"/>
    <path id="Path_78" data-name="Path 78" d="M-166.3,431.131a11.107,11.107,0,0,1-6.513-2.426A16.517,16.517,0,0,1-177.959,422a5.885,5.885,0,0,1,.4-5.494,14.127,14.127,0,0,1,1.013-1.417.611.611,0,0,1,.3-.233,3.471,3.471,0,0,1,1.649-.093.971.971,0,0,1,.537.367,16.826,16.826,0,0,1,1.742,3.37,1.623,1.623,0,0,1-.225,1.49,6.208,6.208,0,0,1-.741.937.437.437,0,0,0-.094.6,11.6,11.6,0,0,0,1.028,1.495,15.645,15.645,0,0,0,4.08,3.166c.439.246.515.246.844-.127.46-.519.9-1.056,1.329-1.6a1.083,1.083,0,0,1,1.394-.405,4.849,4.849,0,0,1,.685.374c.91.559,1.816,1.125,2.725,1.686a.6.6,0,0,1,.333.781,5.681,5.681,0,0,1-1.107,2.581,4.474,4.474,0,0,1-3.119,1.588C-165.554,431.1-165.928,431.108-166.3,431.131Zm.16-1.047a4.844,4.844,0,0,0,2.326-.466A3.543,3.543,0,0,0-162.034,427a.227.227,0,0,0-.1-.179c-.926-.584-1.855-1.161-2.784-1.742-.174-.109-.283-.091-.425.088a14,14,0,0,1-1.381,1.624c-.851.792-1.154.734-1.953.319a15.144,15.144,0,0,1-4.92-3.96,4.534,4.534,0,0,1-.866-1.65.994.994,0,0,1,.258-1.093,6.662,6.662,0,0,0,.722-.854.872.872,0,0,0,.113-1c-.441-.837-.883-1.673-1.3-2.521a.534.534,0,0,0-.6-.308.944.944,0,0,0-.872.489c-.273.5-.613.973-.843,1.493a4.57,4.57,0,0,0-.06,3.794,15.739,15.739,0,0,0,5.1,6.578A9.759,9.759,0,0,0-166.141,430.083Z" transform="translate(-2.661 -2.783)" fill="#fff" stroke="#fff" stroke-width="1"/>
  </g>
</svg>
