<svg xmlns="http://www.w3.org/2000/svg" width="145.177" height="120.535" viewBox="0 0 145.177 120.535">
  <g id="widget-01" transform="translate(560.448 -220.375)">
    <path id="Path_83" data-name="Path 83" d="M-372.352,279.183q-3.987,4.007-7.974,8.013c-2.168,2.171-3.723,2.451-6.881,1.014-.894,1-1.853,2.161-2.9,3.231a2.152,2.152,0,0,1-3.244.219c-.883-.906-.808-2.164.3-3.242,1.009-.983,2.1-1.878,3.246-2.888l-23.517-22.464c-2.543,2.721-4.965,5.371-7.455,7.955-1.675,1.739-2.925,2.032-4.892.62a24.239,24.239,0,0,0-16.929-4.381c-3.987.344-8.029.012-12.043.109a3.864,3.864,0,0,0-2.344.974c-2.511,2.363-4.923,4.832-7.343,7.29-1.941,1.97-2.074,4.391-.395,6.192,1.62,1.736,4.032,1.8,6.111.126,1.986-1.6,3.91-3.281,5.94-4.823a4.26,4.26,0,0,1,2.283-.865c3.163-.1,6.331-.059,9.5-.033,1.939.017,2.571.791,2.482,2.746a1.789,1.789,0,0,0,.469,1.179c1.4,1.472,2.871,2.875,4.287,4.332,1.1,1.135,1.176,2.318.265,3.247-.885.9-2.173.844-3.26-.224-2.123-2.086-4.188-4.233-6.34-6.288a5.459,5.459,0,0,0-1.713-.745c-.041-.017-.095,0-.141,0a9.61,9.61,0,0,0-9.235,3.247,15.178,15.178,0,0,1-2.069,1.718,8.5,8.5,0,0,1-11.765-.774,8.446,8.446,0,0,1,.309-11.782c2.392-2.485,4.867-4.889,7.3-7.332.329-.329.642-.674,1.118-1.174-.824-.575-1.547-1.159-2.344-1.613a15.386,15.386,0,0,0-2.208-.944c-3.165-1.19-6.507-2.071-8.55-5.393-1.749,1.79-3.284,3.387-4.846,4.956q-5.1,5.123-10.227,10.221c-1.15,1.144-2.132,1.3-3.128.554a2.082,2.082,0,0,1-.093-3.321c1.642-1.7,3.329-3.353,5-5.023q5.814-5.814,11.629-11.626c1.422-1.424,1.421-2.121,0-3.543q-3.753-3.765-7.515-7.521c-1.247-1.252-1.383-2.507-.4-3.454.941-.909,2.169-.777,3.355.4q4.022,4,8.021,8.016a6.065,6.065,0,0,1,1.467,6.53,1.977,1.977,0,0,0,.333,1.533,8.1,8.1,0,0,0,4.128,2.805c3.631,1.153,7.048,2.7,9.65,5.663a2.277,2.277,0,0,0,1.539.43c6.143.029,12.288-.068,18.427.077a13.348,13.348,0,0,1,4.827,1.261c1.938.842,3.714,2.052,5.6,3.031a1.446,1.446,0,0,0,1.3-.015c2.326-2.347,4.585-4.76,6.938-7.235-1.189-2.957-.939-4.146,1.559-6.645l14.733-14.736c.3-.3.595-.609.905-.9a2.175,2.175,0,0,1,3.155-.241,2.169,2.169,0,0,1-.159,3.257q-6.191,6.238-12.424,12.434c-1.4,1.395-2.807,2.776-4.33,4.281l28.718,27.436c2.533-2.567,4.974-5.054,7.43-7.527,1.746-1.759,2.644-1.761,4.342-.052Z" transform="translate(-42.918 -1.393)" fill="#ef2c1d"/>
    <path id="Path_84" data-name="Path 84" d="M-454.289,356.228c3.782-3.8,7.436-7.491,11.13-11.145.479-.474,1.184-1.067,1.742-1.026a2.763,2.763,0,0,1,2.023,1.113,2.636,2.636,0,0,1-.275,2.286,26.551,26.551,0,0,1-2.938,3.059c-3.071,3.076-6.155,6.139-9.206,9.236a2.7,2.7,0,0,0-.808,1.388c-.577,4.672-2.861,7-7.594,7.558-.477,4.581-2.988,7.23-7.642,7.716-1.212,5.286-2.823,6.908-7.739,7.721-.086.411-.185.858-.271,1.308a7.218,7.218,0,0,1-5.087,5.9,7.143,7.143,0,0,1-7.6-1.73c-1.8-1.733-3.477-3.587-5.376-5.563-1.288,1.368-2.386,2.536-3.486,3.7-2.321,2.459-5.1,3.423-8.341,2.236-3.2-1.171-4.817-3.635-5.138-7.122-4.5-.488-7.13-2.973-7.607-7.622-3.318-.266-5.991-1.737-6.925-4.941a4.111,4.111,0,0,0-3.284-3.275c-4.785-1.5-6.373-7.555-3.27-11.527.375-.48.8-.923,1.282-1.482-3.023-2.544-3.738-5.922-3.418-9.6a4.631,4.631,0,0,0-1.686-4.2c-2.279-2.052-4.34-4.345-6.572-6.453a3.045,3.045,0,0,0-1.929-.743,6.171,6.171,0,0,1-4.616-1.789q-5.321-5.3-10.622-10.626c-1.113-1.12-1.195-2.306-.293-3.24.921-.953,2.178-.866,3.345.294q5.028,5,10.027,10.018c1.443,1.441,2.113,1.442,3.542.027.839-.831,1.663-1.678,2.508-2.5,1.182-1.152,2.427-1.257,3.353-.3s.8,2.12-.391,3.348c-.625.644-1.261,1.277-1.886,1.921a1.676,1.676,0,0,0-.171.374c2.632,2.631,5.254,5.34,7.983,7.937a4.6,4.6,0,0,1,1.669,3.982c-.111,1.266-.031,2.55-.019,3.825a5.361,5.361,0,0,0,2.172,4.684c4.777-5.126,11.392-3.091,13.483,2.389,2.992-1.083,5.85-.859,8.261,1.4,2.366,2.217,2.875,4.981,1.965,8.122a7.781,7.781,0,0,1,5.645,6.659,21.959,21.959,0,0,1,2.653.379,7.525,7.525,0,0,1,5.07,10.172,1.453,1.453,0,0,0,.417,1.927c1.382,1.288,2.682,2.663,4.024,3.993,1.774,1.759,3.8,1.941,5.229.481,1.458-1.494,1.254-3.371-.582-5.216q-3.5-3.515-7.015-7.017c-.234-.234-.477-.46-.693-.71a2.166,2.166,0,0,1-.092-3.055,2.056,2.056,0,0,1,3.138.1c2.632,2.579,5.2,5.226,7.848,7.788a5.187,5.187,0,0,0,2.128,1.279,3.061,3.061,0,0,0,3.479-1.567,3.14,3.14,0,0,0-.5-3.916c-1.621-1.717-3.322-3.359-4.99-5.032-1.034-1.037-2.084-2.059-3.1-3.112-1.081-1.118-1.177-2.341-.294-3.248.944-.97,2.143-.869,3.35.285.239.228.468.467.7.7,2.339,2.339,4.667,4.687,7.019,7.013,1.611,1.593,3.64,1.695,5.016.293s1.247-3.387-.37-5.018q-3.842-3.876-7.717-7.718a2.239,2.239,0,0,1-.758-2.537c.6-1.564,2.355-1.843,3.69-.534,2.5,2.448,4.951,4.938,7.428,7.4a9.628,9.628,0,0,0,1.151,1.047,3.24,3.24,0,0,0,4.271-.341,3.289,3.289,0,0,0,.211-4.39c-.6-.727-1.3-1.368-1.969-2.036q-6.261-6.267-12.525-12.532a6.5,6.5,0,0,1-1.027-1.163,1.974,1.974,0,0,1,.282-2.591,1.93,1.93,0,0,1,2.582-.312,6.979,6.979,0,0,1,1.16,1.033C-464.22,346.3-459.313,351.205-454.289,356.228Zm-63.893,14.711a5.034,5.034,0,0,0,1.683-.791c2.685-2.58,5.336-5.2,7.906-7.9a3.066,3.066,0,0,0-.127-4.24,3,3,0,0,0-4.22-.335c-2.781,2.614-5.465,5.335-8.105,8.092a2.838,2.838,0,0,0-.335,3.319A3.345,3.345,0,0,0-518.182,370.939Zm20.072,2.994a5.06,5.06,0,0,0-1.611.8c-2.054,1.939-4.063,3.931-6,5.987a3.1,3.1,0,0,0,.139,4.45,3.084,3.084,0,0,0,4.446.219c2.1-1.96,4.117-4.009,6.09-6.1a2.909,2.909,0,0,0,.414-3.431A3.412,3.412,0,0,0-498.11,373.933Zm-13.114,4.827a7.49,7.49,0,0,0,2.062-.849c2.021-1.914,4.044-3.838,5.907-5.9a2.981,2.981,0,0,0-.348-4.116,2.988,2.988,0,0,0-4.125-.26c-2.022,1.841-3.948,3.8-5.8,5.813a2.507,2.507,0,0,0-.191,3.29A13.1,13.1,0,0,0-511.224,378.76Zm-14.5-15.45a4.114,4.114,0,0,0,1.53-.659c1.823-1.7,3.63-3.432,5.281-5.3a3.009,3.009,0,0,0-.4-4.208,3.041,3.041,0,0,0-4.123-.139c-1.807,1.648-3.532,3.394-5.191,5.19a2.828,2.828,0,0,0-.337,3.313A3.246,3.246,0,0,0-525.72,363.309Z" transform="translate(0 -50.862)" fill="#ef2c1d"/>
    <line id="Line_6" data-name="Line 6" x1="7.175" y1="19.73" transform="translate(-507.14 223.578)" fill="none" stroke="#006298" stroke-linecap="round" stroke-width="5"/>
    <line id="Line_7" data-name="Line 7" y1="19.73" x2="7.175" transform="translate(-464.99 223.578)" fill="none" stroke="#006298" stroke-linecap="round" stroke-width="5"/>
    <line id="Line_8" data-name="Line 8" y1="19.73" transform="translate(-482.926 223.578)" fill="none" stroke="#006298" stroke-linecap="round" stroke-width="5"/>
  </g>
</svg>
