<svg xmlns="http://www.w3.org/2000/svg" width="114.8" height="124.777" viewBox="0 0 114.8 124.777">
  <g id="widget-02" transform="translate(396.3 -202.89)">
    <path id="Path_85" data-name="Path 85" d="M-247.525,202.89a16.391,16.391,0,0,1,3.254,2.544,6.808,6.808,0,0,1,.9,3.19c.094.685.225,1.037.926,1.3,1.967.734,3.9,1.559,5.819,2.418a1.091,1.091,0,0,0,1.464-.207c2.679-2.59,5.695-2.537,8.339.09,1.813,1.8,3.628,3.6,5.417,5.425a5.4,5.4,0,0,1,.063,8.015,1.3,1.3,0,0,0-.3,1.761c.867,1.825,1.6,3.715,2.326,5.6.24.627.445.981,1.234,1,3.738.089,5.8,2.256,5.814,5.994.007,2.517.015,5.035,0,7.552a5.416,5.416,0,0,1-5.676,5.773,1.232,1.232,0,0,0-1.376.968c-.727,1.972-1.557,3.909-2.414,5.83a1.039,1.039,0,0,0,.207,1.367c2.623,2.793,2.567,5.752-.115,8.452-1.772,1.785-3.541,3.574-5.334,5.337a5.388,5.388,0,0,1-8.086.032,1.232,1.232,0,0,0-1.666-.245c-1.83.854-3.7,1.628-5.595,2.333-.7.26-1.023.508-1.035,1.324-.05,3.554-2.273,5.724-5.821,5.752-2.512.02-5.026.015-7.538,0-3.639-.02-5.853-2.163-5.914-5.784a1.174,1.174,0,0,0-.934-1.279c-1.927-.725-3.829-1.525-5.709-2.366a1.178,1.178,0,0,0-1.578.191c-2.705,2.588-5.685,2.51-8.346-.145q-2.671-2.664-5.33-5.341c-2.44-2.471-2.5-5.635-.081-8.1a1.29,1.29,0,0,0,.239-1.769c-.854-1.832-1.6-3.717-2.312-5.61-.245-.651-.5-.943-1.259-.954-3.631-.052-5.77-2.267-5.783-5.9q-.014-3.776,0-7.552c.015-3.572,2.152-5.8,5.7-5.863a1.239,1.239,0,0,0,1.36-1c.692-1.9,1.474-3.77,2.313-5.609a1.239,1.239,0,0,0-.206-1.672c-2.476-2.558-2.428-5.661.066-8.184q2.695-2.727,5.416-5.426c2.525-2.507,5.634-2.558,8.166-.08a1.217,1.217,0,0,0,1.657.231c1.869-.864,3.81-1.57,5.7-2.4.362-.159.872-.6.861-.9-.123-3.126,1.5-4.979,4.226-6.1Zm-15.13,69.963c0-3.459-.038-6.5.023-9.548a1.678,1.678,0,0,0-1.087-1.75,21.554,21.554,0,0,1-6.132-33.2c1.937-2.208,4.095-4.2,7-5.075a3.778,3.778,0,0,1,5.014,2.9,9.13,9.13,0,0,1,.243,2.171c-.01,4.142-.064,8.283-.083,12.425a7.874,7.874,0,0,0,.176,1.69,5.142,5.142,0,0,0,4.3,3.935,4.941,4.941,0,0,0,4.5-3.322,7.311,7.311,0,0,0,.368-2.263c.037-3.533.01-7.067.02-10.6a24.111,24.111,0,0,1,.1-3.758,3.806,3.806,0,0,1,5.142-3.156,8.329,8.329,0,0,1,1.679.687c7.405,4.095,11.863,13.654,10.29,21.992a21.667,21.667,0,0,1-11.456,15.756c-.313.17-.738.531-.743.809-.052,3.311-.033,6.624-.033,10.316,2.225-1.116,4.221-2.064,6.164-3.11,1.688-.908,2.51-.85,3.894.513.491.484,1,.957,1.458,1.468a.889.889,0,0,0,1.521.024q2.639-2.7,5.336-5.337c.575-.564.516-1.008-.042-1.525-.625-.578-1.226-1.185-1.8-1.81a2.314,2.314,0,0,1-.386-3.107,34.268,34.268,0,0,0,3.948-9.51,2.384,2.384,0,0,1,2.566-1.965c.81-.026,1.623-.042,2.432,0,.862.048,1.132-.339,1.122-1.159q-.046-3.655,0-7.311c.012-.828-.273-1.2-1.124-1.163s-1.7.033-2.553-.01a2.412,2.412,0,0,1-2.454-1.96,32.829,32.829,0,0,0-3.944-9.51,2.371,2.371,0,0,1,.392-3.113q.923-.97,1.889-1.9a.8.8,0,0,0,.028-1.339q-2.768-2.74-5.506-5.512a.8.8,0,0,0-1.333.018q-.88.927-1.807,1.808a2.378,2.378,0,0,1-3.294.432,32.976,32.976,0,0,0-9.264-3.871A2.456,2.456,0,0,1-248.2,211.2c-.022-.812-.026-1.625,0-2.436.022-.725-.281-1.015-1.013-1.008-2.513.024-5.027.03-7.541,0-.814-.01-1.075.341-1.045,1.1.033.852.035,1.707,0,2.558a2.368,2.368,0,0,1-1.835,2.432,33.911,33.911,0,0,0-9.716,4.042,2.3,2.3,0,0,1-3-.426c-.644-.617-1.282-1.244-1.893-1.894-.5-.536-.915-.5-1.422.019q-2.683,2.74-5.416,5.43c-.471.467-.506.868-.017,1.337.644.618,1.281,1.245,1.888,1.9a2.369,2.369,0,0,1,.368,3.213,32.5,32.5,0,0,0-3.884,9.4,2.417,2.417,0,0,1-2.434,1.988c-.89.048-1.784.037-2.675.018-.7-.015-1.04.253-1.035,1,.02,2.559.014,5.118,0,7.676,0,.663.282.964.952.949.891-.02,1.785-.028,2.675,0a2.393,2.393,0,0,1,2.485,1.918,33.327,33.327,0,0,0,3.991,9.621,2.32,2.32,0,0,1-.393,3.011c-.585.619-1.174,1.238-1.8,1.81s-.638,1.015-.015,1.608c1.292,1.231,2.53,2.519,3.793,3.782,2.22,2.22,2.221,2.219,4.434.039,1.431-1.411,2.193-1.459,3.989-.5C-266.847,270.82-264.879,271.745-262.655,272.853Zm.1-44.489c-5.341,3.812-8.111,8.75-7.7,15.09.435,6.777,3.957,11.639,10.149,14.413a3.377,3.377,0,0,1,2.337,3.511c-.059,5.642,0,11.286-.039,16.929-.006,1,.318,1.363,1.329,1.338,2.268-.057,4.54-.077,6.806.006,1.213.045,1.5-.419,1.491-1.555-.048-5.521.025-11.043-.047-16.563a3.477,3.477,0,0,1,2.426-3.69,16.687,16.687,0,0,0,3.452-28.66c-.324-.246-.674-.456-1.1-.741,0,3.668.015,7.116-.008,10.563a31.534,31.534,0,0,1-.181,3.885,10.023,10.023,0,0,1-7.665,8.195c-3.455.771-7.442-1.035-9.594-4.339a10.685,10.685,0,0,1-1.657-6.007C-262.547,236.693-262.551,232.648-262.551,228.363Z" transform="translate(-69.238 0)" fill="#006298"/>
    <path id="Path_86" data-name="Path 86" d="M-331.6,495.821q-10.079-2.679-20.158-5.359c-5.084-1.357-10.134-2.861-15.26-4.032a32.214,32.214,0,0,0-6.521-.311c-.231,0-.543.4-.694.679a6.443,6.443,0,0,1-6.083,3.709c-3.081-.014-6.163.011-9.244-.007a6.413,6.413,0,0,1-6.727-6.739q-.027-12.49,0-24.979A6.479,6.479,0,0,1-389.564,452q4.622-.037,9.244,0a6.331,6.331,0,0,1,5.993,3.642,1.287,1.287,0,0,0,1.291.819A15.487,15.487,0,0,0-366.4,455.3a29.6,29.6,0,0,1,10.621-2.346c5.878-.141,10.88,2.145,15.391,5.721a10.489,10.489,0,0,1,1.665,1.417,5.348,5.348,0,0,0,4.821,1.876c3.4-.152,6.811.02,10.214-.061a9.7,9.7,0,0,1,7.574,2.761c1.361-.693,2.693-1.365,4.02-2.047q7.565-3.888,15.127-7.781a9.241,9.241,0,0,1,8.428-.381c5.833,2.656,6.681,10.635,1.5,14.756-2.885,2.293-5.962,4.346-8.985,6.461a2.391,2.391,0,0,1-3.359-.508,2.407,2.407,0,0,1,.578-3.443c2.683-1.963,5.462-3.8,8.079-5.847a6.163,6.163,0,0,0,2.08-2.854c.8-2.709-1.672-5.028-4.535-4.412a7.5,7.5,0,0,0-1.807.692c-5.948,3.047-11.881,6.122-17.834,9.158a1.222,1.222,0,0,0-.832,1.455,8.916,8.916,0,0,1-8.85,10.013c-7.053.092-14.109.036-21.163.022a2.5,2.5,0,0,1-2.764-2.438c-.008-1.5,1.071-2.424,2.863-2.425,6.852-.006,13.7,0,20.555-.007a4.25,4.25,0,0,0,4.52-3.428,4.127,4.127,0,0,0-4.169-4.84c-4.257-.038-8.514-.059-12.77.006a7.273,7.273,0,0,1-5.479-2.13,25.1,25.1,0,0,0-8.973-5.906c-4.513-1.611-8.968-1.03-13.324.544-3.219,1.163-6.4,2.333-9.9,2.012a1.579,1.579,0,0,0-.484.127v19.569c.124.066.2.139.26.133,5.43-.512,10.472,1.257,15.581,2.643,8.047,2.184,16.106,4.327,24.141,6.555a12.43,12.43,0,0,0,10.585-1.54c2.138-1.393,4.206-2.895,6.313-4.337a2.362,2.362,0,0,1,2.742-.12,2.18,2.18,0,0,1,1.094,2.386,2.354,2.354,0,0,1-.689,1.364c-3.782,2.855-7.491,5.851-12.172,7.179-.652.185-1.31.349-1.965.522Zm-46.921-24.443q0-6.145,0-12.289c0-1.675-.513-2.207-2.144-2.214q-4.311-.017-8.623,0c-1.582.007-2.132.547-2.134,2.114q-.011,12.289,0,24.578c0,1.515.539,2.052,2.038,2.058,2.874.011,5.749.007,8.623,0,1.8,0,2.237-.428,2.239-2.2Q-378.516,477.4-378.523,471.378Z" transform="translate(0 -168.154)" fill="#ef2c1d"/>
    <path id="Path_87" data-name="Path 87" d="M-124.448,535.773a2.367,2.367,0,0,1-2.412-2.34,2.435,2.435,0,0,1,2.411-2.492,2.478,2.478,0,0,1,2.434,2.368A2.42,2.42,0,0,1-124.448,535.773Z" transform="translate(-181.888 -221.454)" fill="#ef2c1d"/>
  </g>
</svg>
