<svg xmlns="http://www.w3.org/2000/svg" width="112.154" height="117.692" viewBox="0 0 112.154 117.692">
  <g id="widget-05" transform="translate(913.714 -155.712)">
    <path id="Path_98" data-name="Path 98" d="M-779.293,155.712a37.787,37.787,0,0,1,5.436,1.715,16.591,16.591,0,0,1,7.148,23.343c-.114.2-.228.4-.388.673.257.207.507.421.77.619a17.23,17.23,0,0,1,7.288,13.8c.1,3.176.07,6.357.018,9.535a6.311,6.311,0,0,1-6.341,6.366c-1.722.044-3.447.031-5.17,0a2.33,2.33,0,0,1-2.56-2.341c.018-1.38,1-2.233,2.626-2.245,1.532-.011,3.064.006,4.6-.006,1.633-.013,2.259-.6,2.263-2.189.008-3.14.1-6.285-.052-9.419a12.636,12.636,0,0,0-5.77-10.081,1.06,1.06,0,0,0-1.494.061,16.474,16.474,0,0,1-20.428-.01,1.063,1.063,0,0,0-1.5-.046,12.662,12.662,0,0,0-5.773,10.2c-.127,3.135-.056,6.28-.04,9.419.007,1.442.662,2.049,2.152,2.066,1.608.018,3.217-.009,4.825.009a2.27,2.27,0,0,1,2.507,2.25,2.307,2.307,0,0,1-2.455,2.33c-1.8.037-3.6.056-5.4-.007a6.242,6.242,0,0,1-6.2-6.251,106.589,106.589,0,0,1,.264-11.926c.517-4.879,3.177-8.691,7.125-11.589.212-.156.422-.315.692-.518a17.77,17.77,0,0,1-2.618-7.876,16.739,16.739,0,0,1,13.806-17.65c.336-.054.663-.156.994-.235Zm-1.826,28.754a12.106,12.106,0,0,0,12.086-12.025,12.141,12.141,0,0,0-12.111-12.128,12.138,12.138,0,0,0-12.085,12.038A12.114,12.114,0,0,0-781.119,184.466Z" transform="translate(-76.53 0)" fill="#006298"/>
    <path id="Path_99" data-name="Path 99" d="M-682.843,270.256c.242-5.46.466-10.737.715-16.013a55.231,55.231,0,0,1,.428-6.409,7.942,7.942,0,0,1,8.336-6.966,8.289,8.289,0,0,1,7.768,7.577c1.291,11.14,2.6,22.279,3.838,33.425a13.9,13.9,0,0,1-3.56,11.261c-2,2.209-4.272,4.167-6.373,6.286-1.723,1.738-3.43,3.5-5.039,5.338-2.235,2.558-2.169,5.686-1.95,8.905.312.116.667.228,1.005.376a5.8,5.8,0,0,1,3.808,5.392c.083,2.372.057,4.75.008,7.124a5.9,5.9,0,0,1-5.8,5.819q-13.156.075-26.314,0a5.9,5.9,0,0,1-5.777-5.733c-.077-2.411-.1-4.829.006-7.238a5.6,5.6,0,0,1,3.864-5.329c.947-.346,1.078-.8,1.073-1.647-.029-4.9.05-9.807-.032-14.708a19.665,19.665,0,0,1,3.979-12.448c1.808-2.41,3.877-4.634,5.92-6.857,1.553-1.69,3.318-3.186,4.868-4.88C-689.587,270.812-686.669,269.445-682.843,270.256Zm-.5,43.279c0-.9.032-1.734-.006-2.565a13.4,13.4,0,0,1,3.358-9.512c1.482-1.749,3.106-3.382,4.731-5,2.007-2,4.146-3.867,6.109-5.906a10.112,10.112,0,0,0,2.743-8.992c-.135-.869-.208-1.748-.309-2.623q-1.725-14.942-3.457-29.883c-.262-2.239-1.782-3.66-3.742-3.589a3.729,3.729,0,0,0-3.382,3.831q-.553,11.705-1.035,23.413a2.087,2.087,0,0,0,.316,1.058,8.363,8.363,0,0,1-1.351,10.8c-2.557,2.589-5.147,5.144-7.727,7.71a17.006,17.006,0,0,1-1.585,1.5,2.185,2.185,0,0,1-2.932-.209,2.286,2.286,0,0,1-.253-2.943,6.918,6.918,0,0,1,.775-.845c2.9-2.9,5.818-5.774,8.691-8.7a3.71,3.71,0,0,0,.058-5.358,3.714,3.714,0,0,0-5.274-.061c-3.215,3.175-6.438,6.347-9.506,9.661a17.976,17.976,0,0,0-5.153,13.669c.237,4.392.048,8.807.048,13.211v1.337Zm-9.494,14.262q6.26,0,12.521,0c1.4,0,1.864-.469,1.873-1.85q.018-2.929,0-5.858c-.007-1.389-.469-1.877-1.856-1.879q-12.521-.015-25.042,0c-1.357,0-1.825.519-1.833,1.916-.01,1.876-.007,3.752,0,5.629.005,1.586.46,2.041,2.048,2.043Q-698.983,327.8-692.837,327.8Z" transform="translate(-139.905 -59.004)" fill="#ef2c1d"/>
    <path id="Path_100" data-name="Path 100" d="M-896.837,313.64a11.6,11.6,0,0,0-3.584-11.066q-3.189-3.064-6.416-6.088c-2.393-2.234-4.638-4.576-5.905-7.671-1.218-2.976-1.08-6.05-.714-9.162,1.162-9.844,2.263-19.7,3.434-29.54a17.157,17.157,0,0,1,.941-4.348,7.963,7.963,0,0,1,8.938-4.865,8.456,8.456,0,0,1,6.627,8.187q.455,10.158.911,20.316c.01.222.043.444.066.67.892-.041,1.726-.13,2.557-.108a7.272,7.272,0,0,1,5.1,2.063c3.652,3.655,7.36,7.271,10.786,11.132a21.2,21.2,0,0,1,5.525,15.379c-.176,4.59-.035,9.191-.035,13.788v1.2c3.9,1.565,4.958,3.141,4.958,7.262,0,1.8.021,3.6-.006,5.4a6.006,6.006,0,0,1-6.12,6.117q-12.87.036-25.739,0a5.96,5.96,0,0,1-6.06-6.039c-.026-1.953-.007-3.907-.006-5.86C-901.577,316.664-900.3,314.858-896.837,313.64Zm23.635-.175c0-5.2-.108-10.254.033-15.3a15.861,15.861,0,0,0-3.9-11.34c-3.5-3.952-7.205-7.726-10.981-11.414-1.947-1.9-5.213-.764-5.972,1.858a3.7,3.7,0,0,0,1.112,3.866c2.9,2.9,5.812,5.78,8.692,8.7a3.777,3.777,0,0,1,.988,1.5,2.089,2.089,0,0,1-.992,2.473,2.2,2.2,0,0,1-2.918-.434c-3.132-3.1-6.286-6.174-9.341-9.345a8.239,8.239,0,0,1-1.023-10.183,2.68,2.68,0,0,0,.4-1.372c-.172-4.784-.384-9.566-.6-14.348-.132-2.984-.252-5.969-.432-8.95a3.714,3.714,0,0,0-3.433-3.779,3.68,3.68,0,0,0-3.681,3.528c-.243,1.859-.455,3.723-.67,5.586-.976,8.44-1.777,16.905-2.986,25.312-.726,5.051.445,9.139,4.32,12.456,1.017.871,2,1.791,2.943,2.738,2.056,2.056,4.175,4.06,6.093,6.239a13.414,13.414,0,0,1,3.476,9.813c-.039.789-.006,1.582-.006,2.405Zm-9.436,14.256q6.259,0,12.519,0c1.364,0,1.863-.5,1.872-1.871.014-1.991.019-3.982,0-5.972-.013-1.171-.519-1.735-1.666-1.737q-12.691-.028-25.382,0c-1.171,0-1.667.54-1.678,1.707-.019,1.952-.01,3.9,0,5.857,0,1.6.431,2.018,2.053,2.019Q-888.783,327.726-882.638,327.722Z" transform="translate(0 -58.928)" fill="#ef2c1d"/>
    <path id="Path_101" data-name="Path 101" d="M-734.043,325.611a2.326,2.326,0,0,1-2.334,2.312,2.337,2.337,0,0,1-2.25-2.285,2.272,2.272,0,0,1,2.22-2.288A2.279,2.279,0,0,1-734.043,325.611Z" transform="translate(-121.326 -116.163)" fill="#006298"/>
  </g>
</svg>
