<svg xmlns="http://www.w3.org/2000/svg" width="107.109" height="118.597" viewBox="0 0 107.109 118.597">
  <g id="widget-04" transform="translate(397.865 -174.478)">
    <path id="Path_92" data-name="Path 92" d="M-341.42,192.641c0,2.937.022,5.644-.007,8.349-.02,1.929-1.023,3.164-2.608,3.324-1.891.19-3.26-1.078-3.3-3.177-.048-2.752-.012-5.5-.012-8.47a45.519,45.519,0,0,0-18.052,4.866c1.394,2.407,2.8,4.713,4.068,7.1a4.726,4.726,0,0,1,.555,2.592,2.594,2.594,0,0,1-2.33,2.226A2.8,2.8,0,0,1-366.135,208c-1.157-1.928-2.254-3.892-3.38-5.839-.3-.513-.608-1.017-.989-1.654A47.01,47.01,0,0,0-383.629,213.6c.845.507,1.646,1,2.456,1.47,1.665.971,3.358,1.9,5,2.91a2.9,2.9,0,0,1,1.13,4.048,2.917,2.917,0,0,1-4.071,1.018c-2.052-1.125-4.056-2.336-6.084-3.5-.426-.246-.868-.465-1.414-.755a46.11,46.11,0,0,0-4.784,17.964c1.484,0,2.885,0,4.285,0,1.47,0,2.941-.028,4.41.015a2.909,2.909,0,0,1,3.027,2.9A2.932,2.932,0,0,1-382.7,242.6c-2.842.043-5.685.011-8.682.011a46.146,46.146,0,0,0,4.8,17.991c2.424-1.361,4.747-2.713,7.121-3.967a4.717,4.717,0,0,1,2.322-.63,2.61,2.61,0,0,1,2.481,2.215,2.76,2.76,0,0,1-1.358,3.184c-2.122,1.28-4.284,2.492-6.426,3.738-.349.2-.684.432-1.022.647,2.42,4.255,8.687,10.534,13.093,13.089q1.6-2.77,3.209-5.546c.322-.556.635-1.118.972-1.665,1.042-1.692,2.7-2.2,4.2-1.3a2.968,2.968,0,0,1,.912,4.218c-1.143,2.043-2.339,4.055-3.508,6.083-.224.388-.428.788-.675,1.245a46.821,46.821,0,0,0,17.919,4.806v-1.574c0-2.3-.029-4.6.011-6.892.035-1.985,1.264-3.3,2.973-3.281s2.913,1.328,2.931,3.326c.034,3.676.04,7.352,0,11.027-.025,2.187-1.189,3.255-3.383,3.256a52.883,52.883,0,0,1-51.425-42.25,52.839,52.839,0,0,1,35.084-60.861c2.554-.866,5.213-1.424,7.952-2.159,0-2.837,0-5.772,0-8.706.006-2.58,1.008-3.6,3.576-3.609q5.306-.019,10.612,0c2.39.012,3.441,1.074,3.451,3.457.012,2.938,0,5.876,0,8.942,1.21.277,2.4.529,3.584.824A52.852,52.852,0,0,1-291.8,233.629a57,57,0,0,1,.332,5.774,2.9,2.9,0,0,1-3.157,3.2q-5.65.044-11.3,0a2.96,2.96,0,0,1-3.156-2.934,2.908,2.908,0,0,1,3.163-2.9c2.791-.032,5.584-.008,8.355-.008.518-3.762-2.255-14.159-4.785-18.042-2.409,1.393-4.809,2.813-7.241,4.176a2.949,2.949,0,0,1-4.337-1.184,2.952,2.952,0,0,1,1.36-3.882c2.405-1.425,4.839-2.8,7.364-4.259a47.1,47.1,0,0,0-13.149-13.17c-1.43,2.473-2.833,4.882-4.218,7.3a2.96,2.96,0,0,1-2.923,1.682,2.921,2.921,0,0,1-2.24-4.517c1.353-2.45,2.8-4.85,4.277-7.407A45.934,45.934,0,0,0-341.42,192.641Zm-.081-6.027v-5.665h-5.737v5.665Z" transform="translate(0)" fill="#ef2c1d" stroke="#f2f2f2" stroke-width="1"/>
    <path id="Path_93" data-name="Path 93" d="M-238.423,396.358a11.3,11.3,0,0,1,1.182-1.988,21.569,21.569,0,0,1,2.266-2c1.611-1.386,1.625-2.8.038-4.181q-.727-.633-1.46-1.259c-2.1-1.792-2.477-2.722-1.213-5.11a70.014,70.014,0,0,1,4.525-7.012,2.906,2.906,0,0,1,3.457-1c.881.253,1.757.523,2.64.77,2.5.7,3.868-.094,4.433-2.66.9-4.067.781-4.7,6.085-5.012a50.056,50.056,0,0,1,6.31.277,3.284,3.284,0,0,1,3.1,2.677c.207.751.376,1.513.554,2.272.532,2.273,1.974,3.131,4.192,2.5.441-.126.885-.24,1.326-.367,3.53-1.016,4.069-.965,6.154,1.989a44.5,44.5,0,0,1,3.606,6.453c.752,1.568.358,2.638-.944,3.8-.686.611-1.387,1.2-2.084,1.8-1.5,1.284-1.519,2.845-.053,4.121.727.633,1.474,1.244,2.186,1.893a2.922,2.922,0,0,1,.884,3.713,23.467,23.467,0,0,1-4.971,7.857,3.151,3.151,0,0,1-3.368.965c-.883-.244-1.759-.517-2.64-.769-2.6-.745-3.942.026-4.527,2.694-.887,4.049-.874,4.648-5.993,4.954a47.229,47.229,0,0,1-6.447-.282,3.134,3.134,0,0,1-3.007-2.742c-.161-.762-.362-1.516-.542-2.274-.523-2.188-1.95-3.032-4.1-2.422-.485.137-.975.258-1.459.4-3.425.989-3.979.938-6.045-1.972a61.345,61.345,0,0,1-3.632-6.439A8.893,8.893,0,0,1-238.423,396.358Zm6.795-13.174c2.278,1.846,4,3.574,4,7.1.008,3.565-1.753,5.328-3.966,7.147,1.576,3.415,1.6,3.5,4.859,2.448a4.681,4.681,0,0,1,4.754.725,8.972,8.972,0,0,0,2.313,1.194,3.313,3.313,0,0,1,2.234,2.717c.2,1.154.5,2.291.745,3.381,4.085.46,4.085.46,4.978-3.351.01-.045.021-.089.029-.134.251-1.386,1.178-2.08,2.342-2.818,2.991-1.9,5.964-2.9,9.365-1.152.19.1.722-.145.886-.376.6-.846,1.106-1.754,1.7-2.731-2.51-1.849-4.06-3.7-4.063-7.175,0-3.5,1.679-5.275,4-7.072-.316-.6-.549-1.1-.825-1.565-1.056-1.8-1.1-1.89-3.063-1.179-2.269.821-4.36.992-6.278-.768a2.011,2.011,0,0,0-.844-.451c-2.295-.568-3.153-2.221-3.555-4.374-.391-2.091-.481-2.074-2.521-2.072s-2.029,0-2.507,1.952c-.1.4-.224.8-.293,1.2a3.755,3.755,0,0,1-2.692,3.163,7.416,7.416,0,0,0-2.173,1.161,4.305,4.305,0,0,1-4.379.626C-229.891,379.706-229.912,379.772-231.628,383.184Z" transform="translate(-100.376 -121.231)" fill="#006298" stroke="#f2f2f2" stroke-width="1"/>
    <path id="Path_94" data-name="Path 94" d="M-275.3,308.705c-4.572,0-7.852-2.262-9.128-5.725a8.41,8.41,0,0,1,2.586-9.709c7.659-6,15.4-11.9,23.129-17.813,3.828-2.929,7.7-5.8,11.546-8.7a2.9,2.9,0,0,1,3.456-.339,2.669,2.669,0,0,1,1.416,2.768,3.236,3.236,0,0,1-.584,1.5q-13.247,17.435-26.545,34.833A7.807,7.807,0,0,1-275.3,308.705Zm14.747-24.114-.256-.2c-.726.55-1.457,1.094-2.178,1.651-5.043,3.9-10.109,7.771-15.109,11.725a2.9,2.9,0,0,0-.339,4.459,2.86,2.86,0,0,0,4.456-.38C-269.466,296.124-265.024,290.346-260.555,284.591Z" transform="translate(-70.945 -57.499)" fill="#ef2c1d" stroke="#f2f2f2" stroke-width="1"/>
    <path id="Path_95" data-name="Path 95" d="M-345.915,197.549a2.862,2.862,0,0,1,2.884,1.944,2.588,2.588,0,0,1-.993,3.289q-5.139,3.177-10.424,6.114a2.749,2.749,0,0,1-3.659-1.236,2.735,2.735,0,0,1,.755-3.688c3.465-2.142,7.007-4.16,10.533-6.2A2.823,2.823,0,0,1-345.915,197.549Z" transform="translate(-24.51 -14.26)" fill="#ef2c1d" stroke="#f2f2f2" stroke-width="1"/>
    <path id="Path_96" data-name="Path 96" d="M-192.264,200.581c.316-2.294,2.5-3.79,4.367-2.777,3.5,1.9,6.919,3.947,10.307,6.038a2.765,2.765,0,0,1,.786,3.894,2.765,2.765,0,0,1-3.715,1.076c-3.432-1.929-6.836-3.913-10.167-6.01C-191.4,202.353-191.747,201.336-192.264,200.581Z" transform="translate(-129.539 -14.217)" fill="#ef2c1d" stroke="#f2f2f2" stroke-width="1"/>
    <path id="Path_97" data-name="Path 97" d="M-197.605,415.384a8.774,8.774,0,0,1,8.85-8.794,8.872,8.872,0,0,1,8.777,8.914,8.877,8.877,0,0,1-8.825,8.728A8.784,8.784,0,0,1-197.605,415.384Zm11.693.078a2.93,2.93,0,0,0-2.92-3,2.983,2.983,0,0,0-2.912,2.894,2.965,2.965,0,0,0,2.944,2.993A2.922,2.922,0,0,0-185.912,415.462Z" transform="translate(-126.164 -146.329)" fill="#006298" stroke="#f2f2f2" stroke-width="1"/>
  </g>
</svg>
