<svg xmlns="http://www.w3.org/2000/svg" width="104.347" height="132.127" viewBox="0 0 104.347 132.127">
  <g id="widget-03" transform="translate(363.653 -229.579)">
    <path id="Path_88" data-name="Path 88" d="M-340.4,361.706a4.543,4.543,0,0,1-1.9-2.889c-1.127-4.447-2.364-8.866-3.6-13.453-1.619.422-3.18.821-4.736,1.237-2.986.8-5.975,1.588-8.952,2.419-1.318.368-2.568.514-3.519-.713s-.513-2.38.181-3.577c5.214-8.993,10.387-18.011,15.618-26.994a1.341,1.341,0,0,0-.261-2.028,14.525,14.525,0,0,1-4.419-8.674,10.046,10.046,0,0,0-3.529-6.251c-5.749-4.977-7.271-10.695-4.767-17.811a10.313,10.313,0,0,0-.018-7.064c-2.49-7.074-.906-12.9,4.832-17.793a10.009,10.009,0,0,0,3.475-6.143c1.194-7.023,5.807-11.675,12.755-12.87a10.528,10.528,0,0,0,6.539-3.78,14.772,14.772,0,0,1,17.281-4.677,10.763,10.763,0,0,0,7.669.008c6.551-2.385,12.725-.759,17.206,4.551a11.044,11.044,0,0,0,7,3.953,14.823,14.823,0,0,1,12.294,12.282,11.04,11.04,0,0,0,3.947,7,14.746,14.746,0,0,1,4.564,17.2,10.768,10.768,0,0,0,0,7.667c2.41,6.627.686,12.843-4.759,17.375a9.369,9.369,0,0,0-3.531,5.818,15.873,15.873,0,0,1-5.311,9.968c.244.442.462.851.694,1.253q7.663,13.283,15.329,26.566c.193.335.389.668.58,1a2.519,2.519,0,0,1-.133,3.013,2.541,2.541,0,0,1-2.888.863c-4.434-1.2-8.874-2.378-13.313-3.562-.286-.077-.579-.127-1-.219-.8,2.966-1.6,5.9-2.388,8.825-.414,1.533-.9,3.052-1.216,4.605a4.285,4.285,0,0,1-1.9,2.891h-1.549a12.391,12.391,0,0,1-1.986-2.094c-5.666-9.726-11.271-19.487-16.92-29.224a2.655,2.655,0,0,0-1.223-1.147c-1.286-.46-2.655-.683-3.952-1.118a10.222,10.222,0,0,0-6.82.035,15.753,15.753,0,0,1-3.081.9,2.394,2.394,0,0,0-1.916,1.429q-8.381,14.583-16.834,29.125a12.386,12.386,0,0,1-1.987,2.094Zm73.6-91c-.13-3.591-1.155-6.155-3.464-8a16.526,16.526,0,0,1-6.17-10.788,9.353,9.353,0,0,0-7.66-7.6,16.63,16.63,0,0,1-10.686-6.105,9.363,9.363,0,0,0-10.858-2.828,16.142,16.142,0,0,1-11.814.027,9.466,9.466,0,0,0-11.05,2.948,16.19,16.19,0,0,1-10.112,5.888,9.571,9.571,0,0,0-8.246,8.376,15.408,15.408,0,0,1-5.5,9.624c-3.829,3.2-4.867,7.076-3.152,11.777a15.408,15.408,0,0,1-.023,10.958c-1.689,4.6-.652,8.5,3.132,11.675a15.588,15.588,0,0,1,5.571,9.859,9.658,9.658,0,0,0,8.153,8.195,15.654,15.654,0,0,1,9.878,5.539c3.258,3.86,7.061,4.853,11.784,3.144a15.415,15.415,0,0,1,10.961.032,9.709,9.709,0,0,0,11.677-3.138,15.43,15.43,0,0,1,9.351-5.49c5.211-.964,7.893-3.642,8.828-8.87a14.977,14.977,0,0,1,5.23-9.064c4.092-3.469,5.064-7.122,3.243-12.2a15.049,15.049,0,0,1,.019-10.465A33.307,33.307,0,0,0-266.8,270.71Zm-13.975,48.475c-1.366.28-2.583.519-3.8.781a8.648,8.648,0,0,0-5.007,2.737c-2.272,2.725-4.833,4.991-8.428,6.055L-284.52,352.1c.2-.078.268-.085.274-.108q1.309-4.781,2.61-9.564c.723-2.651,1.678-3.2,4.306-2.5,3.266.871,6.534,1.734,10.075,2.673ZM-325,328.8a16.689,16.689,0,0,1-8.325-5.846,8.7,8.7,0,0,0-5.033-2.933c-1.25-.278-2.509-.515-3.875-.793l-13.5,23.393c3.578-.957,6.846-1.829,10.114-2.705,2.554-.685,3.567-.112,4.251,2.412l2.731,10.087Z" transform="translate(0 0)" fill="#ef2c1d"/>
    <path id="Path_89" data-name="Path 89" d="M-242.549,317.168a33.57,33.57,0,0,1-29.507,33.374,33.606,33.606,0,0,1-37.359-29.723,33.488,33.488,0,0,1,19.36-34.1,15.9,15.9,0,0,1,1.789-.725,2.546,2.546,0,0,1,3.121,1.365,2.527,2.527,0,0,1-1.025,3.254,15.38,15.38,0,0,1-1.633.762c-11.534,5.181-18.029,17.048-16.38,29.926,1.529,11.936,11.357,21.95,23.47,23.912a28.3,28.3,0,0,0,32.945-29.783c-.785-11.285-6.629-19.359-16.877-24.205-.194-.092-.4-.165-.593-.251-1.728-.752-2.4-2.115-1.774-3.57a2.6,2.6,0,0,1,3.7-1.21c11.881,5.283,18.774,14.347,20.57,27.247.089.638.156,1.281.19,1.924C-242.524,315.963-242.549,316.566-242.549,317.168Z" transform="translate(-35.419 -36.884)" fill="#ef2c1d"/>
    <path id="Path_90" data-name="Path 90" d="M-254.465,339.156c3.552-3.56,6.98-7,10.412-10.434,1.978-1.979,3.112-1.973,5.1.013,2.31,2.313,4.628,4.618,6.929,6.939,1.5,1.514,1.515,2.856.023,4.35q-10.118,10.137-20.257,20.254c-1.557,1.554-2.862,1.542-4.439-.031q-7.127-7.107-14.234-14.232c-1.569-1.573-1.58-2.888-.04-4.439q3.637-3.662,7.3-7.3c1.489-1.478,2.853-1.484,4.356,0C-257.727,335.841-256.167,337.441-254.465,339.156Zm12.791-5.564c-3.431,3.449-6.912,6.954-10.4,10.45-1.768,1.771-3.024,1.757-4.815-.041-1.51-1.515-3-3.046-4.415-4.478l-4.143,4.213,11.034,11.107,16.979-16.977Z" transform="translate(-59.981 -63.998)" fill="#006298"/>
    <path id="Path_91" data-name="Path 91" d="M-217.261,279.6a2.536,2.536,0,0,1,2.62,2.461,2.617,2.617,0,0,1-2.587,2.66,2.624,2.624,0,0,1-2.556-2.562A2.536,2.536,0,0,1-217.261,279.6Z" transform="translate(-94.277 -32.78)" fill="#ef2c1d"/>
  </g>
</svg>
